<svg width="64" height="58" viewBox="0 0 64 58" fill="none" xmlns="http://www.w3.org/2000/svg">
<path d="M46.17 48.184C39.2908 53.2353 31.3061 56.7761 23.8468 57.597C16.5079 58.407 10.7451 56.508 7.62018 52.2557L1.88477 44.4461L2.73851 43.8222L8.47392 51.6318C11.3635 55.5667 16.7815 57.3179 23.7319 56.5463C38.3112 54.9373 54.9701 42.7058 60.8643 29.2757C63.6772 22.8781 63.628 17.181 60.7384 13.2461L55.3259 5.87438L56.1796 5.25049L61.5921 12.6222C64.7171 16.88 64.8046 22.9438 61.8329 29.7026C58.8175 36.5709 53.0492 43.1326 46.17 48.184Z" fill="#A1A1A1"/>
<path d="M8.88281 49.5358L13.666 56.0483C14.2297 56.2617 14.8207 56.4478 15.4391 56.601L9.74203 48.8462L8.88281 49.5358Z" fill="#A1A1A1"/>
<path d="M14.2637 50.4662L19.2001 57.1867C19.6543 57.214 20.1195 57.2304 20.5956 57.2304L15.1229 49.7766L14.2637 50.4662Z" fill="#A1A1A1"/>
<path d="M18.7891 50.231L23.8075 57.0664C24.2125 57.0226 24.623 56.9405 25.0334 56.8803L19.6483 49.5469L18.7891 50.2364V50.231Z" fill="#A1A1A1"/>
<path d="M23.0094 49.5742L27.9567 56.3111C28.3453 56.2181 28.7284 56.1414 29.1169 56.0375L23.8631 48.8792L23.0039 49.5687L23.0094 49.5742Z" fill="#A1A1A1"/>
<path d="M26.7734 48.3045L31.8412 55.2055C32.2024 55.0797 32.5581 54.9483 32.9193 54.817L27.6327 47.6204L26.7734 48.3099V48.3045Z" fill="#A1A1A1"/>
<path d="M30.4023 46.8434L35.4974 53.7828C35.8368 53.635 36.1761 53.4708 36.5154 53.3121L31.2616 46.1538L30.4023 46.8434Z" fill="#A1A1A1"/>
<path d="M34.7756 44.7253L34.0039 45.3492L38.9567 52.0916C39.2851 51.9165 39.608 51.7468 39.9363 51.5662L34.8631 44.6597L34.7756 44.7253Z" fill="#A1A1A1"/>
<path d="M37.0293 43.0672L42.2557 50.1872C42.5677 49.9902 42.8851 49.8096 43.1971 49.6125L37.9159 42.4214L37.0293 43.0726V43.0672Z" fill="#A1A1A1"/>
<path d="M40.082 40.8287L45.4125 48.0856C45.708 47.8721 46.0035 47.6532 46.299 47.4343L40.9686 40.1775L40.082 40.8287Z" fill="#A1A1A1"/>
<path d="M43.1367 38.5848L48.4179 45.776C48.7025 45.5407 48.9706 45.2889 49.2497 45.0536L44.0233 37.9336L43.1367 38.5848Z" fill="#A1A1A1"/>
<path d="M46.1914 36.3412L51.2646 43.2478C51.5328 42.9905 51.7955 42.7333 52.0582 42.4706L47.078 35.6899L46.1914 36.3412Z" fill="#A1A1A1"/>
<path d="M48.7031 33.3695L53.946 40.5059C54.1977 40.2323 54.455 39.9587 54.7012 39.6741L49.5897 32.7183L48.7031 33.3695Z" fill="#A1A1A1"/>
<path d="M51.1891 30.3484L56.4593 37.5286C56.6946 37.2276 56.93 36.9266 57.1543 36.6202L52.0702 29.7026L51.1836 30.3539L51.1891 30.3484Z" fill="#A1A1A1"/>
<path d="M53.277 26.7968L58.7661 34.2725C58.9795 33.9332 59.1711 33.5884 59.3736 33.2436L54.1581 26.1455L53.2715 26.7968H53.277Z" fill="#A1A1A1"/>
<path d="M55.4668 23.3761L60.7917 30.622C60.9723 30.2498 61.1748 29.8832 61.339 29.511L56.3534 22.7249L55.4668 23.3761Z" fill="#A1A1A1"/>
<path d="M56.9941 19.0526L62.4559 26.4846C62.5982 26.0303 62.7186 25.5816 62.8335 25.1383L57.8862 18.4014L56.9996 19.0526H56.9941Z" fill="#A1A1A1"/>
<path d="M57.7164 13.6403L63.3971 21.3787C63.4299 20.7439 63.4354 20.1254 63.3971 19.5234L58.5975 12.989L57.7109 13.6403H57.7164Z" fill="#A1A1A1"/>
<path d="M40.9581 41.0859C34.0789 46.1373 26.0887 49.6781 18.6349 50.499C11.296 51.309 5.53321 49.4099 2.40828 45.1576C-0.716638 40.8999 -0.804198 34.8361 2.16749 28.0773C8.19842 14.3353 25.2405 1.82465 40.1536 0.182834C47.4925 -0.627128 53.2553 1.27191 56.3802 5.52421C59.5052 9.77652 59.5872 15.8458 56.621 22.6046C53.6056 29.4728 47.8373 36.0346 40.9581 41.0859ZM18.4434 10.4332C11.7174 15.3696 6.08048 21.7891 3.13068 28.5042C0.323179 34.9072 0.366962 40.5989 3.25656 44.5337C6.14615 48.4686 11.5641 50.2144 18.5145 49.4482C33.0938 47.8393 49.7528 35.6077 55.6469 22.1777C58.4599 15.7801 58.4161 10.0885 55.521 6.1481C52.6314 2.21322 47.2134 0.461945 40.2631 1.22813C32.9734 2.03261 25.1638 5.49137 18.4379 10.4278L18.4434 10.4332Z" fill="#A1A1A1"/>
<path d="M40.5 3L48 4.5L51.5 6.5L54 12L53.5 18L50 26.5L41.5 36L32 42.5L22 46H14L8.5 44L4 39V32.5L6.5 25.5L10.5 19L16 14L24 8L32 4.5L40.5 3Z" fill="#171717"/>
<path d="M39.0098 38.4316C32.9898 42.8536 26.0011 45.9457 19.4776 46.6681C13.0417 47.3795 7.99041 45.7104 5.2431 41.978C2.4958 38.2401 2.41918 32.9206 5.0242 26.9937C10.2999 14.9756 25.2131 4.02465 38.2545 2.58532C44.6905 1.87387 49.7418 3.54305 52.4891 7.28092C55.2309 11.0188 55.3075 16.3383 52.708 22.2652C50.0701 28.2743 45.0243 34.0152 39.0043 38.4316H39.0098ZM19.3463 11.6591C13.485 15.9661 8.56504 21.5592 5.99287 27.4151C3.54656 32.9808 3.58487 37.9336 6.09685 41.3486C8.60883 44.7636 13.3154 46.2795 19.3572 45.6173C32.0704 44.2163 46.595 33.55 51.7393 21.8384C54.1856 16.2726 54.1473 11.3198 51.6353 7.90481C49.1234 4.48436 44.4114 2.96841 38.3695 3.63609C32.0156 4.33659 25.2076 7.35754 19.3408 11.6591H19.3463Z" fill="#A1A1A1"/>
</svg>
