<svg width="61" height="68" viewBox="0 0 61 68" fill="none" xmlns="http://www.w3.org/2000/svg">
<path d="M10.092 48.5656C4.78198 41.3256 1.05199 32.9256 0.191991 25.0856C-0.658009 17.3656 1.33199 11.3056 5.81199 8.01559L14.022 1.9856L14.682 2.88559L6.47199 8.9156C2.33199 11.9556 0.492007 17.6556 1.30201 24.9656C2.99201 40.2956 15.862 57.8256 29.992 64.0256C36.722 66.9856 42.712 66.9356 46.852 63.8956L54.602 58.2056L55.262 59.1056L47.512 64.7956C43.032 68.0856 36.652 68.1756 29.542 65.0556C22.322 61.8856 15.412 55.8156 10.102 48.5756L10.092 48.5656Z" fill="#A1A1A1"/>
<path d="M8.66241 9.34546L1.81241 14.3755C1.58241 14.9655 1.39242 15.5955 1.23242 16.2355L9.39243 10.2455L8.66241 9.34546Z" fill="#A1A1A1"/>
<path d="M7.69226 15.0056L0.622253 20.1956C0.592253 20.6756 0.572266 21.1656 0.572266 21.6656L8.41226 15.9056L7.68225 15.0056H7.69226Z" fill="#A1A1A1"/>
<path d="M7.93192 19.7656L0.741943 25.0456C0.791943 25.4756 0.871925 25.9056 0.941925 26.3356L8.66193 20.6656L7.93192 19.7656Z" fill="#A1A1A1"/>
<path d="M8.62125 24.2056L1.53125 29.4156C1.63125 29.8256 1.71126 30.2256 1.82126 30.6356L9.35126 25.1056L8.62125 24.2056Z" fill="#A1A1A1"/>
<path d="M9.96115 28.1655L2.70117 33.4955C2.83117 33.8755 2.97118 34.2455 3.11118 34.6255L10.6812 29.0655L9.95117 28.1655H9.96115Z" fill="#A1A1A1"/>
<path d="M11.5012 31.9756L4.20117 37.3356C4.36117 37.6956 4.53117 38.0456 4.70117 38.4056L12.2312 32.8756L11.5012 31.9756Z" fill="#A1A1A1"/>
<path d="M13.7224 36.5756L13.0724 35.7656L5.98242 40.9756C6.16242 41.3156 6.34241 41.6656 6.53241 42.0056L13.7924 36.6756L13.7224 36.5856V36.5756Z" fill="#A1A1A1"/>
<path d="M15.4626 38.9556L7.97266 44.4556C8.17266 44.7856 8.37267 45.1156 8.58267 45.4456L16.1526 39.8856L15.4727 38.9556H15.4626Z" fill="#A1A1A1"/>
<path d="M17.8214 42.1655L10.1914 47.7755C10.4214 48.0855 10.6414 48.3955 10.8714 48.7055L18.5014 43.0955L17.8214 42.1655Z" fill="#A1A1A1"/>
<path d="M20.1813 45.3755L12.6113 50.9355C12.8613 51.2355 13.1213 51.5155 13.3713 51.8055L20.8613 46.3055L20.1813 45.3755Z" fill="#A1A1A1"/>
<path d="M22.5413 48.5854L15.2812 53.9155C15.5513 54.1955 15.8213 54.4754 16.1013 54.7554L23.2313 49.5154L22.5513 48.5854H22.5413Z" fill="#A1A1A1"/>
<path d="M25.672 51.2356L18.162 56.7456C18.452 57.0156 18.742 57.2856 19.032 57.5356L26.352 52.1656L25.672 51.2356Z" fill="#A1A1A1"/>
<path d="M28.8527 53.8455L21.3027 59.3955C21.6227 59.6455 21.9427 59.8855 22.2627 60.1255L29.5427 54.7755L28.8627 53.8455H28.8527Z" fill="#A1A1A1"/>
<path d="M32.5827 56.0454L24.7227 61.8154C25.0827 62.0454 25.4427 62.2454 25.8027 62.4554L33.2727 56.9754L32.5927 56.0454H32.5827Z" fill="#A1A1A1"/>
<path d="M36.1825 58.3455L28.5625 63.9455C28.9525 64.1355 29.3425 64.3455 29.7325 64.5155L36.8725 59.2755L36.1925 58.3455H36.1825Z" fill="#A1A1A1"/>
<path d="M40.732 59.9456L32.912 65.6855C33.392 65.8355 33.862 65.9655 34.332 66.0755L41.422 60.8656L40.742 59.9355L40.732 59.9456Z" fill="#A1A1A1"/>
<path d="M46.4213 60.7156L38.2812 66.6956C38.9513 66.7356 39.6013 66.7356 40.2313 66.6956L47.1013 61.6456L46.4213 60.7156Z" fill="#A1A1A1"/>
<path d="M17.553 43.0855C12.243 35.8456 8.51293 27.4455 7.65293 19.6055C6.80293 11.8855 8.79295 5.82555 13.273 2.53555C17.753 -0.754453 24.133 -0.844463 31.243 2.27554C45.693 8.61554 58.8629 26.5455 60.5929 42.2355C61.4429 49.9555 59.4529 56.0155 54.9729 59.3055C50.5029 62.5956 44.1129 62.6856 37.0029 59.5555C29.7829 56.3856 22.8729 50.3155 17.5629 43.0755L17.553 43.0855ZM49.7929 19.4055C44.6029 12.3355 37.8529 6.40555 30.7829 3.30555C24.0529 0.345551 18.0629 0.39554 13.9229 3.43554C9.78295 6.47554 7.94293 12.1755 8.75293 19.4855C10.4429 34.8255 23.3129 52.3455 37.4429 58.5455C44.1729 61.5055 50.163 61.4556 54.303 58.4156C58.443 55.3755 60.2829 49.6755 59.4729 42.3655C58.6229 34.6955 54.9829 26.4855 49.7929 19.4055Z" fill="#A1A1A1"/>
<path d="M23.5 4L27 4.5H29.5L35 7L39.5 10L44.5 14L48 18.5L51.5 23.5L54 28.5L56 33.5L57 37.5L57.5 42V46L56.5 50.5L54 54L50 56L46 57L41.5 56L36.5 54.5L32.5 52L26.5 47.5L23 43.5L19.5 39L15 30L13 24L12 18.5L12.5 14L13 11.5L14 9L16.5 6.5L20 4.5L23.5 4Z" fill="#0A0A0B"/>
<path d="M20.3429 41.0354C15.6929 34.7055 12.4329 27.3554 11.6829 20.4854C10.9329 13.7154 12.6929 8.39545 16.6229 5.51545C20.5529 2.62545 26.1529 2.54545 32.3829 5.28545C45.0229 10.8355 56.5429 26.5154 58.0529 40.2454C58.8029 47.0154 57.0429 52.3354 53.1129 55.2154C49.1829 58.0954 43.5829 58.1855 37.3529 55.4455C31.0329 52.6655 24.9929 47.3654 20.3429 41.0354ZM48.5029 20.3454C43.9729 14.1754 38.0929 9.00545 31.9329 6.30545C26.0729 3.73545 20.8729 3.77545 17.2729 6.41545C13.6829 9.05546 12.0829 14.0055 12.7829 20.3655C14.2529 33.7355 25.4729 49.0154 37.7929 54.4254C43.6529 56.9954 48.8529 56.9554 52.4529 54.3154C56.0529 51.6754 57.6429 46.7155 56.9429 40.3655C56.2029 33.6855 53.0329 26.5154 48.5029 20.3454Z" fill="#A1A1A1"/>
</svg>
