<svg width="1006" height="591" viewBox="0 0 1006 591" fill="none" xmlns="http://www.w3.org/2000/svg">
<style>
@keyframes sg {
  0%   { opacity: 0; }
  50%  { opacity: 1; }
  100% { opacity: 0; }
}
.s1 { animation: sg 13s ease-in-out infinite 0.0s; }
.s2 { animation: sg 15s ease-in-out infinite 1.4s; }
.s3 { animation: sg 11s ease-in-out infinite 2.8s; }
.s4 { animation: sg 17s ease-in-out infinite 4.2s; }
.s5 { animation: sg 12s ease-in-out infinite 5.6s; }
.s6 { animation: sg 16s ease-in-out infinite 7.0s; }
.s7 { animation: sg 14s ease-in-out infinite 8.4s; }
.s8 { animation: sg 11s ease-in-out infinite 9.8s; }
.s9 { animation: sg 15s ease-in-out infinite 0.7s; }
.s10 { animation: sg 13s ease-in-out infinite 2.1s; }
.s11 { animation: sg 17s ease-in-out infinite 4.9s; }
.s12 { animation: sg 12s ease-in-out infinite 6.3s; }
.s13 { animation: sg 14s ease-in-out infinite 10.5s; }
.s14 { animation: sg 16s ease-in-out infinite 12.0s; }
.s15 { animation: sg 11s ease-in-out infinite 14.0s; }
@media (prefers-reduced-motion: reduce) {
  .s1,.s2,.s3,.s4,.s5,.s6,.s7,.s8,.s9,.s10,.s11,.s12,.s13,.s14,.s15 { animation: none; opacity: 0.25; }
}
</style>

<path class="s1" d="M852.056 108.189C841.172 108.189 832.414 99.3667 832.414 88.5478C832.414 77.6644 841.237 68.9062 852.056 68.9062C862.939 68.9062 871.697 77.7288 871.697 88.5478C871.697 99.4311 862.875 108.189 852.056 108.189Z" fill="#737373" fill-opacity="0.5"/>
<path class="s2" d="M871.761 108.189H832.414V147.537H871.761V108.189Z" fill="#737373" fill-opacity="0.5"/>
<path class="s3" d="M871.761 147.472H832.414V186.82H871.761V147.472Z" fill="#737373" fill-opacity="0.5"/>
<path class="s4" d="M871.761 186.82H832.414V226.167H871.761V186.82Z" fill="#737373" fill-opacity="0.5"/>
<path class="s5" d="M832.414 68.8418H793.066V108.189H832.414V68.8418Z" fill="#737373" fill-opacity="0.5"/>
<path class="s6" d="M832.414 186.82H793.066V226.167H832.414V186.82Z" fill="#737373" fill-opacity="0.5"/>
<path class="s7" d="M793.131 108.189H753.783V147.537H793.131V108.189Z" fill="#737373" fill-opacity="0.5"/>
<path class="s8" d="M734.077 108.189C723.194 108.189 714.436 99.3667 714.436 88.5478C714.436 77.6644 723.258 68.9062 734.077 68.9062C744.961 68.9062 753.719 77.7288 753.719 88.5478C753.719 99.4311 744.896 108.189 734.077 108.189Z" fill="#737373" fill-opacity="0.5"/>
<path class="s9" d="M773.425 68.8419C762.541 68.8419 753.783 60.0193 753.783 49.2003C753.783 38.317 762.606 29.5588 773.425 29.5588C784.308 29.5588 793.066 38.3814 793.066 49.2003C793.066 60.0837 784.244 68.8419 773.425 68.8419Z" fill="#737373" fill-opacity="0.5"/>
<path class="s10" d="M753.783 29.5588H714.436V68.9063H753.783V29.5588Z" fill="#737373" fill-opacity="0.5"/>
<path class="s11" d="M734.077 147.472C723.194 147.472 714.436 138.65 714.436 127.831C714.436 116.948 723.258 108.189 734.077 108.189C744.961 108.189 753.719 117.012 753.719 127.831C753.719 138.714 744.896 147.472 734.077 147.472Z" fill="#737373" fill-opacity="0.5"/>
<path class="s12" d="M753.783 147.472H714.436V186.82H753.783V147.472Z" fill="#737373" fill-opacity="0.5"/>
<path class="s13" d="M1009.38 147.472C998.496 147.472 989.738 138.65 989.738 127.831C989.738 116.948 998.561 108.189 1009.38 108.189C1020.26 108.189 1029.02 117.012 1029.02 127.831C1029.02 138.714 1020.2 147.472 1009.38 147.472Z" fill="#737373" fill-opacity="0.5"/>
<path class="s14" d="M1009.38 44.2417H1009.32C1006.61 44.2417 1004.42 46.4329 1004.42 49.136V49.2004C1004.42 51.9034 1006.61 54.0947 1009.32 54.0947H1009.38C1012.08 54.0947 1014.27 51.9034 1014.27 49.2004V49.136C1014.27 46.4329 1012.08 44.2417 1009.38 44.2417Z" fill="#737373" fill-opacity="0.5"/>
<path class="s15" d="M1009.38 4.25049H1009.32C1006.61 4.25049 1004.42 6.44173 1004.42 9.14477V9.20917C1004.42 11.9122 1006.61 14.1034 1009.32 14.1034H1009.38C1012.08 14.1034 1014.27 11.9122 1014.27 9.20917V9.14477C1014.27 6.44173 1012.08 4.25049 1009.38 4.25049Z" fill="#737373" fill-opacity="0.5"/>
<path class="s1" d="M891.338 4.25049H891.273C888.57 4.25049 886.379 6.44173 886.379 9.14477V9.20917C886.379 11.9122 888.57 14.1034 891.273 14.1034H891.338C894.041 14.1034 896.232 11.9122 896.232 9.20917V9.14477C896.232 6.44173 894.041 4.25049 891.338 4.25049Z" fill="#737373" fill-opacity="0.5"/>
<path class="s2" d="M891.789 205.238H891.724C889.021 205.238 886.83 207.429 886.83 210.132V210.196C886.83 212.9 889.021 215.091 891.724 215.091H891.789C894.492 215.091 896.683 212.9 896.683 210.196V210.132C896.683 207.429 894.492 205.238 891.789 205.238Z" fill="#737373" fill-opacity="0.5"/>
<path class="s3" d="M979.821 39.3474H960.18V58.9889H979.821V39.3474Z" fill="#737373" fill-opacity="0.5"/>
<path class="s4" d="M940.538 39.3477H920.896V58.9892H940.538V39.3477Z" fill="#737373" fill-opacity="0.5"/>
<path class="s5" d="M901.19 78.6948H881.549V98.3363H901.19V78.6948Z" fill="#737373" fill-opacity="0.5"/>
<path class="s6" d="M781.216 196.673H761.574V216.314H781.216V196.673Z" fill="#737373" fill-opacity="0.5"/>
<path class="s7" d="M732.466 216.314C727.057 216.314 722.613 211.935 722.613 206.461C722.613 201.052 726.992 196.608 732.466 196.608C737.876 196.608 742.319 200.987 742.319 206.461C742.319 211.871 737.94 216.314 732.466 216.314Z" fill="#737373" fill-opacity="0.5"/>
<path class="s8" d="M930.169 98.3365C924.76 98.3365 920.316 93.9574 920.316 88.4836C920.316 83.0741 924.696 78.6306 930.169 78.6306C935.579 78.6306 940.022 83.0097 940.022 88.4836C940.022 93.893 935.643 98.3365 930.169 98.3365Z" fill="#737373" fill-opacity="0.5"/>
<path class="s9" d="M970.87 98.3365C965.461 98.3365 961.017 93.9574 961.017 88.4836C961.017 83.0741 965.397 78.6306 970.87 78.6306C976.28 78.6306 980.723 83.0097 980.723 88.4836C980.723 93.893 976.344 98.3365 970.87 98.3365Z" fill="#737373" fill-opacity="0.5"/>
<path class="s10" d="M979.821 0H960.18V19.6415H979.821V0Z" fill="#737373" fill-opacity="0.5"/>
<path class="s11" d="M940.538 0H920.896V19.6415H940.538V0Z" fill="#737373" fill-opacity="0.5"/>
<path class="s12" d="M891.402 58.9889C885.992 58.9889 881.549 54.6098 881.549 49.1359C881.549 43.7264 885.928 39.283 891.402 39.283C896.811 39.283 901.255 43.6621 901.255 49.1359C901.255 54.5454 896.876 58.9889 891.402 58.9889Z" fill="#737373" fill-opacity="0.5"/>
<path class="s13" d="M852.056 58.9889C846.647 58.9889 842.203 54.6098 842.203 49.1359C842.203 43.7264 846.582 39.283 852.056 39.283C857.465 39.283 861.909 43.6621 861.909 49.1359C861.909 54.5454 857.53 58.9889 852.056 58.9889Z" fill="#737373" fill-opacity="0.5"/>
<path class="s14" d="M861.907 0H842.266V19.6415H861.907V0Z" fill="#737373" fill-opacity="0.5"/>
<path class="s15" d="M742.255 0H722.613V19.6415H742.255V0Z" fill="#737373" fill-opacity="0.5"/>
<path class="s1" d="M577.46 68.8418C588.343 68.8418 597.101 77.6644 597.101 88.4833C597.101 99.3666 588.279 108.125 577.46 108.125C566.577 108.125 557.818 99.3022 557.818 88.4833C557.818 77.6 566.641 68.8418 577.46 68.8418Z" fill="#737373" fill-opacity="0.5"/>
<path class="s2" d="M636.449 68.8418H597.102V108.189H636.449V68.8418Z" fill="#737373" fill-opacity="0.5"/>
<path class="s3" d="M636.449 147.472H597.102V186.82H636.449V147.472Z" fill="#737373" fill-opacity="0.5"/>
<path class="s4" d="M636.449 186.82H597.102V226.167H636.449V186.82Z" fill="#737373" fill-opacity="0.5"/>
<path class="s5" d="M675.797 68.8418H636.449V108.189H675.797V68.8418Z" fill="#737373" fill-opacity="0.5"/>
<path class="s6" d="M675.797 108.189H636.449V147.537H675.797V108.189Z" fill="#737373" fill-opacity="0.5"/>
<path class="s7" d="M695.438 68.8418C706.322 68.8418 715.08 77.6644 715.08 88.4833C715.08 99.3666 706.257 108.125 695.438 108.125C684.555 108.125 675.797 99.3022 675.797 88.4833C675.797 77.6 684.619 68.8418 695.438 68.8418Z" fill="#737373" fill-opacity="0.5"/>
<path class="s8" d="M656.091 29.5588C666.974 29.5588 675.732 38.3814 675.732 49.2003C675.732 60.0837 666.91 68.8419 656.091 68.8419C645.207 68.8419 636.449 60.0193 636.449 49.2003C636.449 38.317 645.272 29.5588 656.091 29.5588Z" fill="#737373" fill-opacity="0.5"/>
<path class="s9" d="M420.199 44.3062H420.135C417.432 44.3062 415.24 46.4974 415.24 49.2004V49.2648C415.24 51.9679 417.432 54.1591 420.135 54.1591H420.199C422.902 54.1591 425.093 51.9679 425.093 49.2648V49.2004C425.093 46.4974 422.902 44.3062 420.199 44.3062Z" fill="#737373" fill-opacity="0.5"/>
<path class="s10" d="M420.199 4.25049H420.135C417.432 4.25049 415.24 6.44173 415.24 9.14477V9.20917C415.24 11.9122 417.432 14.1034 420.135 14.1034H420.199C422.902 14.1034 425.093 11.9122 425.093 9.20917V9.14477C425.093 6.44173 422.902 4.25049 420.199 4.25049Z" fill="#737373" fill-opacity="0.5"/>
<path class="s11" d="M538.242 4.25049H538.178C535.474 4.25049 533.283 6.44173 533.283 9.14477V9.20917C533.283 11.9122 535.474 14.1034 538.178 14.1034H538.242C540.945 14.1034 543.136 11.9122 543.136 9.20917V9.14477C543.136 6.44173 540.945 4.25049 538.242 4.25049Z" fill="#737373" fill-opacity="0.5"/>
<path class="s12" d="M381.174 44.3062H381.109C378.406 44.3062 376.215 46.4974 376.215 49.2004V49.2648C376.215 51.9679 378.406 54.1591 381.109 54.1591H381.174C383.877 54.1591 386.068 51.9679 386.068 49.2648V49.2004C386.068 46.4974 383.877 44.3062 381.174 44.3062Z" fill="#737373" fill-opacity="0.5"/>
<path class="s13" d="M381.174 4.25049H381.109C378.406 4.25049 376.215 6.44173 376.215 9.14477V9.20917C376.215 11.9122 378.406 14.1034 381.109 14.1034H381.174C383.877 14.1034 386.068 11.9122 386.068 9.20917V9.14477C386.068 6.44173 383.877 4.25049 381.174 4.25049Z" fill="#737373" fill-opacity="0.5"/>
<path class="s14" d="M344.531 44.3062H344.467C341.764 44.3062 339.572 46.4974 339.572 49.2004V49.2648C339.572 51.9679 341.764 54.1591 344.467 54.1591H344.531C347.234 54.1591 349.425 51.9679 349.425 49.2648V49.2004C349.425 46.4974 347.234 44.3062 344.531 44.3062Z" fill="#737373" fill-opacity="0.5"/>
<path class="s15" d="M344.531 4.25049H344.467C341.764 4.25049 339.572 6.44173 339.572 9.14477V9.20917C339.572 11.9122 341.764 14.1034 344.467 14.1034H344.531C347.234 14.1034 349.425 11.9122 349.425 9.20917V9.14477C349.425 6.44173 347.234 4.25049 344.531 4.25049Z" fill="#737373" fill-opacity="0.5"/>
<path class="s1" d="M304.99 4.25049H304.926C302.222 4.25049 300.031 6.44173 300.031 9.14477V9.20917C300.031 11.9122 302.222 14.1034 304.926 14.1034H304.99C307.693 14.1034 309.884 11.9122 309.884 9.20917V9.14477C309.884 6.44173 307.693 4.25049 304.99 4.25049Z" fill="#737373" fill-opacity="0.5"/>
<path class="s2" d="M469.27 39.3474H449.629V58.9889H469.27V39.3474Z" fill="#737373" fill-opacity="0.5"/>
<path class="s3" d="M508.618 39.3477H488.977V58.9892H508.618V39.3477Z" fill="#737373" fill-opacity="0.5"/>
<path class="s4" d="M547.901 78.6948H528.26V98.3363H547.901V78.6948Z" fill="#737373" fill-opacity="0.5"/>
<path class="s5" d="M667.938 196.673H648.297V216.314H667.938V196.673Z" fill="#737373" fill-opacity="0.5"/>
<path class="s6" d="M697.048 196.673C702.458 196.673 706.901 201.052 706.901 206.526C706.901 211.935 702.522 216.379 697.048 216.379C691.639 216.379 687.195 212 687.195 206.526C687.195 201.116 691.574 196.673 697.048 196.673Z" fill="#737373" fill-opacity="0.5"/>
<path class="s7" d="M499.41 78.6948C504.819 78.6948 509.263 83.0739 509.263 88.5478C509.263 93.9572 504.883 98.4007 499.41 98.4007C494 98.4007 489.557 94.0216 489.557 88.5478C489.557 83.1383 493.936 78.6948 499.41 78.6948Z" fill="#737373" fill-opacity="0.5"/>
<path class="s8" d="M458.646 78.6948C464.055 78.6948 468.499 83.0739 468.499 88.5478C468.499 93.9572 464.12 98.4007 458.646 98.4007C453.236 98.4007 448.793 94.0216 448.793 88.5478C448.793 83.1383 453.172 78.6948 458.646 78.6948Z" fill="#737373" fill-opacity="0.5"/>
<path class="s9" d="M469.27 0.0644531H449.629V19.706H469.27V0.0644531Z" fill="#737373" fill-opacity="0.5"/>
<path class="s10" d="M508.618 0.0644531H488.977V19.706H508.618V0.0644531Z" fill="#737373" fill-opacity="0.5"/>
<path class="s11" d="M538.113 39.3477C543.522 39.3477 547.966 43.7267 547.966 49.2006C547.966 54.6101 543.587 59.0536 538.113 59.0536C532.703 59.0536 528.26 54.6745 528.26 49.2006C528.26 43.7911 532.639 39.3477 538.113 39.3477Z" fill="#737373" fill-opacity="0.5"/>
<path class="s12" d="M420.199 201.889H420.135C417.432 201.889 415.24 204.08 415.24 206.783V206.848C415.24 209.551 417.432 211.742 420.135 211.742H420.199C422.902 211.742 425.093 209.551 425.093 206.848V206.783C425.093 204.08 422.902 201.889 420.199 201.889Z" fill="#737373" fill-opacity="0.5"/>
<path class="s13" d="M420.199 161.833H420.135C417.432 161.833 415.24 164.024 415.24 166.728V166.792C415.24 169.495 417.432 171.686 420.135 171.686H420.199C422.902 171.686 425.093 169.495 425.093 166.792V166.728C425.093 164.024 422.902 161.833 420.199 161.833Z" fill="#737373" fill-opacity="0.5"/>
<path class="s14" d="M538.242 161.833H538.178C535.474 161.833 533.283 164.024 533.283 166.728V166.792C533.283 169.495 535.474 171.686 538.178 171.686H538.242C540.945 171.686 543.136 169.495 543.136 166.792V166.728C543.136 164.024 540.945 161.833 538.242 161.833Z" fill="#737373" fill-opacity="0.5"/>
<path class="s15" d="M381.174 201.889H381.109C378.406 201.889 376.215 204.08 376.215 206.783V206.848C376.215 209.551 378.406 211.742 381.109 211.742H381.174C383.877 211.742 386.068 209.551 386.068 206.848V206.783C386.068 204.08 383.877 201.889 381.174 201.889Z" fill="#737373" fill-opacity="0.5"/>
<path class="s1" d="M381.174 161.833H381.109C378.406 161.833 376.215 164.024 376.215 166.728V166.792C376.215 169.495 378.406 171.686 381.109 171.686H381.174C383.877 171.686 386.068 169.495 386.068 166.792V166.728C386.068 164.024 383.877 161.833 381.174 161.833Z" fill="#737373" fill-opacity="0.5"/>
<path class="s2" d="M344.531 201.889H344.467C341.764 201.889 339.572 204.08 339.572 206.783V206.848C339.572 209.551 341.764 211.742 344.467 211.742H344.531C347.234 211.742 349.425 209.551 349.425 206.848V206.783C349.425 204.08 347.234 201.889 344.531 201.889Z" fill="#737373" fill-opacity="0.5"/>
<path class="s3" d="M344.531 161.833H344.467C341.764 161.833 339.572 164.024 339.572 166.728V166.792C339.572 169.495 341.764 171.686 344.467 171.686H344.531C347.234 171.686 349.425 169.495 349.425 166.792V166.728C349.425 164.024 347.234 161.833 344.531 161.833Z" fill="#737373" fill-opacity="0.5"/>
<path class="s4" d="M469.27 196.93H449.629V216.572H469.27V196.93Z" fill="#737373" fill-opacity="0.5"/>
<path class="s5" d="M508.618 196.93H488.977V216.572H508.618V196.93Z" fill="#737373" fill-opacity="0.5"/>
<path class="s6" d="M469.27 157.647H449.629V177.289H469.27V157.647Z" fill="#737373" fill-opacity="0.5"/>
<path class="s7" d="M508.618 157.647H488.977V177.289H508.618V157.647Z" fill="#737373" fill-opacity="0.5"/>
<path class="s8" d="M538.113 196.93C543.522 196.93 547.966 201.31 547.966 206.783C547.966 212.193 543.587 216.636 538.113 216.636C532.703 216.636 528.26 212.257 528.26 206.783C528.26 201.374 532.639 196.93 538.113 196.93Z" fill="#737373" fill-opacity="0.5"/>
<path class="s9" d="M577.46 39.3474C582.87 39.3474 587.313 43.7265 587.313 49.2004C587.313 54.6098 582.934 59.0533 577.46 59.0533C572.051 59.0533 567.607 54.6742 567.607 49.2004C567.607 43.7909 571.986 39.3474 577.46 39.3474Z" fill="#737373" fill-opacity="0.5"/>
<path class="s10" d="M587.249 0.0644531H567.607V19.706H587.249V0.0644531Z" fill="#737373" fill-opacity="0.5"/>
<path class="s11" d="M706.899 0.0644531H687.258V19.706H706.899V0.0644531Z" fill="#737373" fill-opacity="0.5"/>
<path class="s12" d="M852.056 108.189C841.172 108.189 832.414 99.3667 832.414 88.5478C832.414 77.6644 841.237 68.9062 852.056 68.9062C862.939 68.9062 871.697 77.7288 871.697 88.5478C871.697 99.4311 862.875 108.189 852.056 108.189Z" fill="#737373" fill-opacity="0.5"/>
<path class="s13" d="M871.761 108.189H832.414V147.537H871.761V108.189Z" fill="#737373" fill-opacity="0.5"/>
<path class="s14" d="M871.761 186.82H832.414V226.167H871.761V186.82Z" fill="#737373" fill-opacity="0.5"/>
<path class="s15" d="M832.414 68.8418H793.066V108.189H832.414V68.8418Z" fill="#737373" fill-opacity="0.5"/>
<path class="s1" d="M832.414 186.82H793.066V226.167H832.414V186.82Z" fill="#737373" fill-opacity="0.5"/>
<path class="s2" d="M1009.38 147.472C998.496 147.472 989.738 138.65 989.738 127.831C989.738 116.948 998.561 108.189 1009.38 108.189C1020.26 108.189 1029.02 117.012 1029.02 127.831C1029.02 138.714 1020.2 147.472 1009.38 147.472Z" fill="#737373" fill-opacity="0.5"/>
<path class="s3" d="M1009.38 44.2417H1009.32C1006.61 44.2417 1004.42 46.4329 1004.42 49.136V49.2004C1004.42 51.9034 1006.61 54.0947 1009.32 54.0947H1009.38C1012.08 54.0947 1014.27 51.9034 1014.27 49.2004V49.136C1014.27 46.4329 1012.08 44.2417 1009.38 44.2417Z" fill="#737373" fill-opacity="0.5"/>
<path class="s4" d="M1009.38 4.25049H1009.32C1006.61 4.25049 1004.42 6.44173 1004.42 9.14477V9.20917C1004.42 11.9122 1006.61 14.1034 1009.32 14.1034H1009.38C1012.08 14.1034 1014.27 11.9122 1014.27 9.20917V9.14477C1014.27 6.44173 1012.08 4.25049 1009.38 4.25049Z" fill="#737373" fill-opacity="0.5"/>
<path class="s5" d="M891.338 4.25049H891.273C888.57 4.25049 886.379 6.44173 886.379 9.14477V9.20917C886.379 11.9122 888.57 14.1034 891.273 14.1034H891.338C894.041 14.1034 896.232 11.9122 896.232 9.20917V9.14477C896.232 6.44173 894.041 4.25049 891.338 4.25049Z" fill="#737373" fill-opacity="0.5"/>
<path class="s6" d="M891.789 205.238H891.724C889.021 205.238 886.83 207.429 886.83 210.132V210.196C886.83 212.9 889.021 215.091 891.724 215.091H891.789C894.492 215.091 896.683 212.9 896.683 210.196V210.132C896.683 207.429 894.492 205.238 891.789 205.238Z" fill="#737373" fill-opacity="0.5"/>
<path class="s7" d="M979.821 39.3474H960.18V58.9889H979.821V39.3474Z" fill="#737373" fill-opacity="0.5"/>
<path class="s8" d="M940.538 39.3477H920.896V58.9892H940.538V39.3477Z" fill="#737373" fill-opacity="0.5"/>
<path class="s9" d="M901.19 78.6948H881.549V98.3363H901.19V78.6948Z" fill="#737373" fill-opacity="0.5"/>
<path class="s10" d="M930.169 98.3365C924.76 98.3365 920.316 93.9574 920.316 88.4836C920.316 83.0741 924.696 78.6306 930.169 78.6306C935.579 78.6306 940.022 83.0097 940.022 88.4836C940.022 93.893 935.643 98.3365 930.169 98.3365Z" fill="#737373" fill-opacity="0.5"/>
<path class="s11" d="M970.87 98.3365C965.461 98.3365 961.017 93.9574 961.017 88.4836C961.017 83.0741 965.397 78.6306 970.87 78.6306C976.28 78.6306 980.723 83.0097 980.723 88.4836C980.723 93.893 976.344 98.3365 970.87 98.3365Z" fill="#737373" fill-opacity="0.5"/>
<path class="s12" d="M979.821 0H960.18V19.6415H979.821V0Z" fill="#737373" fill-opacity="0.5"/>
<path class="s13" d="M940.538 0H920.896V19.6415H940.538V0Z" fill="#737373" fill-opacity="0.5"/>
<path class="s14" d="M891.402 58.9889C885.992 58.9889 881.549 54.6098 881.549 49.1359C881.549 43.7264 885.928 39.283 891.402 39.283C896.811 39.283 901.255 43.6621 901.255 49.1359C901.255 54.5454 896.876 58.9889 891.402 58.9889Z" fill="#737373" fill-opacity="0.5"/>
<path class="s15" d="M852.056 58.9889C846.647 58.9889 842.203 54.6098 842.203 49.1359C842.203 43.7264 846.582 39.283 852.056 39.283C857.465 39.283 861.909 43.6621 861.909 49.1359C861.909 54.5454 857.53 58.9889 852.056 58.9889Z" fill="#737373" fill-opacity="0.5"/>
<path class="s1" d="M861.907 0H842.266V19.6415H861.907V0Z" fill="#737373" fill-opacity="0.5"/>
<path class="s2" d="M282.515 147.472H243.168V186.82H282.515V147.472Z" fill="#737373" fill-opacity="0.5"/>
<path class="s3" d="M321.863 68.8418H282.516V108.189H321.863V68.8418Z" fill="#737373" fill-opacity="0.5"/>
<path class="s4" d="M321.863 147.472H282.516V186.82H321.863V147.472Z" fill="#737373" fill-opacity="0.5"/>
<path class="s5" d="M105.55 108.189C116.433 108.189 125.191 117.012 125.191 127.831C125.191 138.714 116.369 147.472 105.55 147.472C94.6664 147.472 85.9082 138.65 85.9082 127.831C85.9082 116.948 94.7308 108.189 105.55 108.189Z" fill="#737373" fill-opacity="0.5"/>
<path class="s6" d="M144.895 108.189C155.779 108.189 164.537 117.012 164.537 127.831C164.537 138.714 155.714 147.472 144.895 147.472C134.012 147.472 125.254 138.65 125.254 127.831C125.254 116.948 134.076 108.189 144.895 108.189Z" fill="#737373" fill-opacity="0.5"/>
<path class="s7" d="M144.895 147.472C155.779 147.472 164.537 156.295 164.537 167.114C164.537 177.997 155.714 186.755 144.895 186.755C134.012 186.755 125.254 177.933 125.254 167.114C125.254 156.231 134.076 147.472 144.895 147.472Z" fill="#737373" fill-opacity="0.5"/>
<path class="s8" d="M203.885 186.82H164.537V226.167H203.885V186.82Z" fill="#737373" fill-opacity="0.5"/>
<path class="s9" d="M193.388 238.982H173.746V258.624H193.388V238.982Z" fill="#737373" fill-opacity="0.5"/>
<path class="s10" d="M66.6513 147.472C55.7679 147.472 47.0098 138.65 47.0098 127.831C47.0098 116.948 55.8323 108.189 66.6513 108.189C77.5346 108.189 86.2928 117.012 86.2928 127.831C86.2928 138.714 77.4702 147.472 66.6513 147.472Z" fill="#737373" fill-opacity="0.5"/>
<path class="s11" d="M27.3056 147.472C16.4222 147.472 7.66406 138.65 7.66406 127.831C7.66406 116.948 16.4866 108.189 27.3056 108.189C38.1889 108.189 46.9471 117.012 46.9471 127.831C46.9471 138.714 38.1245 147.472 27.3056 147.472Z" fill="#737373" fill-opacity="0.5"/>
<path class="s12" d="M27.3056 186.82C16.4222 186.82 7.66406 177.997 7.66406 167.178C7.66406 156.295 16.4866 147.537 27.3056 147.537C38.1889 147.537 46.9471 156.359 46.9471 167.178C46.9471 178.062 38.1245 186.82 27.3056 186.82Z" fill="#737373" fill-opacity="0.5"/>
<path class="s13" d="M125.256 186.82H85.9082V226.167H125.256V186.82Z" fill="#737373" fill-opacity="0.5"/>
<path class="s14" d="M115.401 238.982H95.7598V258.624H115.401V238.982Z" fill="#737373" fill-opacity="0.5"/>
<path class="s15" d="M1009.51 148.503C998.625 148.503 989.867 139.68 989.867 128.861C989.867 117.978 998.69 109.22 1009.51 109.22C1020.39 109.22 1029.15 118.042 1029.15 128.861C1029.15 139.745 1020.33 148.503 1009.51 148.503Z" fill="#737373" fill-opacity="0.5"/>
<path class="s1" d="M773.425 590.147C762.541 590.147 753.783 581.325 753.783 570.506C753.783 559.622 762.606 550.864 773.425 550.864C784.308 550.864 793.066 559.687 793.066 570.506C793.066 581.389 784.244 590.147 773.425 590.147Z" fill="#737373" fill-opacity="0.5"/>
<path class="s2" d="M753.783 550.8H714.436V590.147H753.783V550.8Z" fill="#737373" fill-opacity="0.5"/>
<path class="s3" d="M793.131 511.517H753.783V550.864H793.131V511.517Z" fill="#737373" fill-opacity="0.5"/>
<path class="s4" d="M1009.38 565.547H1009.32C1006.61 565.547 1004.42 567.738 1004.42 570.441V570.506C1004.42 573.209 1006.61 575.4 1009.32 575.4H1009.38C1012.08 575.4 1014.27 573.209 1014.27 570.506V570.441C1014.27 567.738 1012.08 565.547 1009.38 565.547Z" fill="#737373" fill-opacity="0.5"/>
<path class="s5" d="M1009.38 525.556H1009.32C1006.61 525.556 1004.42 527.747 1004.42 530.45V530.514C1004.42 533.217 1006.61 535.409 1009.32 535.409H1009.38C1012.08 535.409 1014.27 533.217 1014.27 530.514V530.45C1014.27 527.747 1012.08 525.556 1009.38 525.556Z" fill="#737373" fill-opacity="0.5"/>
<path class="s6" d="M891.338 525.556H891.273C888.57 525.556 886.379 527.747 886.379 530.45V530.514C886.379 533.217 888.57 535.409 891.273 535.409H891.338C894.041 535.409 896.232 533.217 896.232 530.514V530.45C896.232 527.747 894.041 525.556 891.338 525.556Z" fill="#737373" fill-opacity="0.5"/>
<path class="s7" d="M979.821 560.653H960.18V580.294H979.821V560.653Z" fill="#737373" fill-opacity="0.5"/>
<path class="s8" d="M940.538 560.653H920.896V580.294H940.538V560.653Z" fill="#737373" fill-opacity="0.5"/>
<path class="s9" d="M979.821 521.37H960.18V541.011H979.821V521.37Z" fill="#737373" fill-opacity="0.5"/>
<path class="s10" d="M940.538 521.37H920.896V541.011H940.538V521.37Z" fill="#737373" fill-opacity="0.5"/>
<path class="s11" d="M891.402 580.294C885.992 580.294 881.549 575.915 881.549 570.441C881.549 565.032 885.928 560.588 891.402 560.588C896.811 560.588 901.255 564.967 901.255 570.441C901.255 575.851 896.876 580.294 891.402 580.294Z" fill="#737373" fill-opacity="0.5"/>
<path class="s12" d="M852.056 580.294C846.647 580.294 842.203 575.915 842.203 570.441C842.203 565.032 846.582 560.588 852.056 560.588C857.465 560.588 861.909 564.967 861.909 570.441C861.909 575.851 857.53 580.294 852.056 580.294Z" fill="#737373" fill-opacity="0.5"/>
<path class="s13" d="M861.907 521.37H842.266V541.011H861.907V521.37Z" fill="#737373" fill-opacity="0.5"/>
<path class="s14" d="M742.255 521.37H722.613V541.011H742.255V521.37Z" fill="#737373" fill-opacity="0.5"/>
<path class="s15" d="M656.091 550.864C666.974 550.864 675.732 559.687 675.732 570.506C675.732 581.389 666.91 590.147 656.091 590.147C645.207 590.147 636.449 581.325 636.449 570.506C636.449 559.622 645.272 550.864 656.091 550.864Z" fill="#737373" fill-opacity="0.5"/>
<path class="s1" d="M715.08 550.864H675.732V590.211H715.08V550.864Z" fill="#737373" fill-opacity="0.5"/>
<path class="s2" d="M675.797 511.517H636.449V550.864H675.797V511.517Z" fill="#737373" fill-opacity="0.5"/>
<path class="s3" d="M420.199 565.547H420.135C417.432 565.547 415.24 567.738 415.24 570.441V570.506C415.24 573.209 417.432 575.4 420.135 575.4H420.199C422.902 575.4 425.093 573.209 425.093 570.506V570.441C425.093 567.738 422.902 565.547 420.199 565.547Z" fill="#737373" fill-opacity="0.5"/>
<path class="s4" d="M420.199 525.556H420.135C417.432 525.556 415.24 527.747 415.24 530.45V530.514C415.24 533.217 417.432 535.409 420.135 535.409H420.199C422.902 535.409 425.093 533.217 425.093 530.514V530.45C425.093 527.747 422.902 525.556 420.199 525.556Z" fill="#737373" fill-opacity="0.5"/>
<path class="s5" d="M538.242 525.556H538.178C535.474 525.556 533.283 527.747 533.283 530.45V530.514C533.283 533.217 535.474 535.409 538.178 535.409H538.242C540.945 535.409 543.136 533.217 543.136 530.514V530.45C543.136 527.747 540.945 525.556 538.242 525.556Z" fill="#737373" fill-opacity="0.5"/>
<path class="s6" d="M381.174 565.547H381.109C378.406 565.547 376.215 567.738 376.215 570.441V570.506C376.215 573.209 378.406 575.4 381.109 575.4H381.174C383.877 575.4 386.068 573.209 386.068 570.506V570.441C386.068 567.738 383.877 565.547 381.174 565.547Z" fill="#737373" fill-opacity="0.5"/>
<path class="s7" d="M381.174 525.556H381.109C378.406 525.556 376.215 527.747 376.215 530.45V530.514C376.215 533.217 378.406 535.409 381.109 535.409H381.174C383.877 535.409 386.068 533.217 386.068 530.514V530.45C386.068 527.747 383.877 525.556 381.174 525.556Z" fill="#737373" fill-opacity="0.5"/>
<path class="s8" d="M344.531 565.547H344.467C341.764 565.547 339.572 567.738 339.572 570.441V570.506C339.572 573.209 341.764 575.4 344.467 575.4H344.531C347.234 575.4 349.425 573.209 349.425 570.506V570.441C349.425 567.738 347.234 565.547 344.531 565.547Z" fill="#737373" fill-opacity="0.5"/>
<path class="s9" d="M344.531 525.556H344.467C341.764 525.556 339.572 527.747 339.572 530.45V530.514C339.572 533.217 341.764 535.409 344.467 535.409H344.531C347.234 535.409 349.425 533.217 349.425 530.514V530.45C349.425 527.747 347.234 525.556 344.531 525.556Z" fill="#737373" fill-opacity="0.5"/>
<path class="s10" d="M304.99 525.556H304.926C302.222 525.556 300.031 527.747 300.031 530.45V530.514C300.031 533.217 302.222 535.409 304.926 535.409H304.99C307.693 535.409 309.884 533.217 309.884 530.514V530.45C309.884 527.747 307.693 525.556 304.99 525.556Z" fill="#737373" fill-opacity="0.5"/>
<path class="s11" d="M469.27 560.653H449.629V580.294H469.27V560.653Z" fill="#737373" fill-opacity="0.5"/>
<path class="s12" d="M508.618 560.653H488.977V580.294H508.618V560.653Z" fill="#737373" fill-opacity="0.5"/>
<path class="s13" d="M469.27 521.305H449.629V540.947H469.27V521.305Z" fill="#737373" fill-opacity="0.5"/>
<path class="s14" d="M508.618 521.305H488.977V540.947H508.618V521.305Z" fill="#737373" fill-opacity="0.5"/>
<path class="s15" d="M538.113 560.653C543.522 560.653 547.966 565.032 547.966 570.506C547.966 575.915 543.587 580.358 538.113 580.358C532.703 580.358 528.26 575.979 528.26 570.506C528.26 565.096 532.639 560.653 538.113 560.653Z" fill="#737373" fill-opacity="0.5"/>
<path class="s1" d="M577.46 560.653C582.87 560.653 587.313 565.032 587.313 570.506C587.313 575.915 582.934 580.358 577.46 580.358C572.051 580.358 567.607 575.979 567.607 570.506C567.607 565.096 571.986 560.653 577.46 560.653Z" fill="#737373" fill-opacity="0.5"/>
<path class="s2" d="M587.249 521.305H567.607V540.947H587.249V521.305Z" fill="#737373" fill-opacity="0.5"/>
<path class="s3" d="M706.899 521.305H687.258V540.947H706.899V521.305Z" fill="#737373" fill-opacity="0.5"/>
<path class="s4" d="M1009.38 565.547H1009.32C1006.61 565.547 1004.42 567.738 1004.42 570.441V570.506C1004.42 573.209 1006.61 575.4 1009.32 575.4H1009.38C1012.08 575.4 1014.27 573.209 1014.27 570.506V570.441C1014.27 567.738 1012.08 565.547 1009.38 565.547Z" fill="#737373" fill-opacity="0.5"/>
<path class="s5" d="M1009.38 525.556H1009.32C1006.61 525.556 1004.42 527.747 1004.42 530.45V530.514C1004.42 533.217 1006.61 535.409 1009.32 535.409H1009.38C1012.08 535.409 1014.27 533.217 1014.27 530.514V530.45C1014.27 527.747 1012.08 525.556 1009.38 525.556Z" fill="#737373" fill-opacity="0.5"/>
<path class="s6" d="M891.338 525.556H891.273C888.57 525.556 886.379 527.747 886.379 530.45V530.514C886.379 533.217 888.57 535.409 891.273 535.409H891.338C894.041 535.409 896.232 533.217 896.232 530.514V530.45C896.232 527.747 894.041 525.556 891.338 525.556Z" fill="#737373" fill-opacity="0.5"/>
<path class="s7" d="M979.821 560.653H960.18V580.294H979.821V560.653Z" fill="#737373" fill-opacity="0.5"/>
<path class="s8" d="M940.538 560.653H920.896V580.294H940.538V560.653Z" fill="#737373" fill-opacity="0.5"/>
<path class="s9" d="M979.821 521.37H960.18V541.011H979.821V521.37Z" fill="#737373" fill-opacity="0.5"/>
<path class="s10" d="M940.538 521.37H920.896V541.011H940.538V521.37Z" fill="#737373" fill-opacity="0.5"/>
<path class="s11" d="M61.2419 525.556H61.1775C58.4744 525.556 56.2832 527.747 56.2832 530.45V530.514C56.2832 533.217 58.4744 535.409 61.1775 535.409H61.2419C63.9449 535.409 66.1362 533.217 66.1362 530.514V530.45C66.1362 527.747 63.9449 525.556 61.2419 525.556Z" fill="#737373" fill-opacity="0.5"/>
<path class="s12" d="M891.402 580.294C885.992 580.294 881.549 575.915 881.549 570.441C881.549 565.032 885.928 560.588 891.402 560.588C896.811 560.588 901.255 564.967 901.255 570.441C901.255 575.851 896.876 580.294 891.402 580.294Z" fill="#737373" fill-opacity="0.5"/>
<path class="s13" d="M852.056 580.294C846.647 580.294 842.203 575.915 842.203 570.441C842.203 565.032 846.582 560.588 852.056 560.588C857.465 560.588 861.909 564.967 861.909 570.441C861.909 575.851 857.53 580.294 852.056 580.294Z" fill="#737373" fill-opacity="0.5"/>
<path class="s14" d="M861.907 521.37H842.266V541.011H861.907V521.37Z" fill="#737373" fill-opacity="0.5"/>
<path class="s15" d="M105.613 565.547H105.549C102.846 565.547 100.654 567.738 100.654 570.441V570.506C100.654 573.209 102.846 575.4 105.549 575.4H105.613C108.316 575.4 110.507 573.209 110.507 570.506V570.441C110.507 567.738 108.316 565.547 105.613 565.547Z" fill="#737373" fill-opacity="0.5"/>
<path class="s1" d="M105.613 525.556H105.549C102.846 525.556 100.654 527.747 100.654 530.45V530.514C100.654 533.217 102.846 535.409 105.549 535.409H105.613C108.316 535.409 110.507 533.217 110.507 530.514V530.45C110.507 527.747 108.316 525.556 105.613 525.556Z" fill="#737373" fill-opacity="0.5"/>
<path class="s2" d="M154.684 560.653H135.043V580.294H154.684V560.653Z" fill="#737373" fill-opacity="0.5"/>
<path class="s3" d="M194.032 560.653H174.391V580.294H194.032V560.653Z" fill="#737373" fill-opacity="0.5"/>
<path class="s4" d="M154.684 521.305H135.043V540.947H154.684V521.305Z" fill="#737373" fill-opacity="0.5"/>
<path class="s5" d="M194.032 521.305H174.391V540.947H194.032V521.305Z" fill="#737373" fill-opacity="0.5"/>
<path class="s6" d="M262.874 560.653C268.284 560.653 272.727 565.032 272.727 570.506C272.727 575.915 268.348 580.358 262.874 580.358C257.465 580.358 253.021 575.979 253.021 570.506C253.021 565.096 257.401 560.653 262.874 560.653Z" fill="#737373" fill-opacity="0.5"/>
<path class="s7" d="M272.663 521.305H253.021V540.947H272.663V521.305Z" fill="#737373" fill-opacity="0.5"/>
<path class="s8" d="M373.317 384.201C384.201 384.201 392.959 393.024 392.959 403.842C392.959 414.726 384.136 423.484 373.317 423.484C362.434 423.484 353.676 414.661 353.676 403.842C353.676 392.959 362.498 384.201 373.317 384.201Z" fill="#737373" fill-opacity="0.5"/>
<path class="s9" d="M432.371 384.201H393.023V423.548H432.371V384.201Z" fill="#737373" fill-opacity="0.5"/>
<path class="s10" d="M432.371 266.223H393.023V305.571H432.371V266.223Z" fill="#737373" fill-opacity="0.5"/>
<path class="s11" d="M471.654 344.854H432.307V384.201H471.654V344.854Z" fill="#737373" fill-opacity="0.5"/>
<path class="s12" d="M491.296 384.201C502.179 384.201 510.937 393.024 510.937 403.842C510.937 414.726 502.115 423.484 491.296 423.484C480.412 423.484 471.654 414.661 471.654 403.842C471.654 392.959 480.477 384.201 491.296 384.201Z" fill="#737373" fill-opacity="0.5"/>
<path class="s13" d="M451.948 423.548C462.831 423.548 471.59 432.371 471.59 443.19C471.59 454.073 462.767 462.831 451.948 462.831C441.065 462.831 432.307 454.009 432.307 443.19C432.307 432.307 441.129 423.548 451.948 423.548Z" fill="#737373" fill-opacity="0.5"/>
<path class="s14" d="M511.002 423.548H471.654V462.896H511.002V423.548Z" fill="#737373" fill-opacity="0.5"/>
<path class="s15" d="M471.654 462.832H432.307V502.179H471.654V462.832Z" fill="#737373" fill-opacity="0.5"/>
<path class="s1" d="M491.296 344.854C502.179 344.854 510.937 353.676 510.937 364.495C510.937 375.378 502.115 384.137 491.296 384.137C480.412 384.137 471.654 375.314 471.654 364.495C471.654 353.612 480.477 344.854 491.296 344.854Z" fill="#737373" fill-opacity="0.5"/>
<path class="s2" d="M511.002 305.57H471.654V344.918H511.002V305.57Z" fill="#737373" fill-opacity="0.5"/>
<path class="s3" d="M216.056 438.296H215.992C213.289 438.296 211.098 440.487 211.098 443.19V443.254C211.098 445.957 213.289 448.149 215.992 448.149H216.056C218.759 448.149 220.951 445.957 220.951 443.254V443.19C220.951 440.487 218.759 438.296 216.056 438.296Z" fill="#737373" fill-opacity="0.5"/>
<path class="s4" d="M216.056 478.287H215.992C213.289 478.287 211.098 480.478 211.098 483.181V483.246C211.098 485.949 213.289 488.14 215.992 488.14H216.056C218.759 488.14 220.951 485.949 220.951 483.246V483.181C220.951 480.478 218.759 478.287 216.056 478.287Z" fill="#737373" fill-opacity="0.5"/>
<path class="s5" d="M334.097 478.287H334.033C331.33 478.287 329.139 480.478 329.139 483.181V483.246C329.139 485.949 331.33 488.14 334.033 488.14H334.097C336.8 488.14 338.992 485.949 338.992 483.246V483.181C338.992 480.478 336.8 478.287 334.097 478.287Z" fill="#737373" fill-opacity="0.5"/>
<path class="s6" d="M177.096 438.296H177.031C174.328 438.296 172.137 440.487 172.137 443.19V443.254C172.137 445.957 174.328 448.149 177.031 448.149H177.096C179.799 448.149 181.99 445.957 181.99 443.254V443.19C181.99 440.487 179.799 438.296 177.096 438.296Z" fill="#737373" fill-opacity="0.5"/>
<path class="s7" d="M177.096 478.287H177.031C174.328 478.287 172.137 480.478 172.137 483.181V483.246C172.137 485.949 174.328 488.14 177.031 488.14H177.096C179.799 488.14 181.99 485.949 181.99 483.246V483.181C181.99 480.478 179.799 478.287 177.096 478.287Z" fill="#737373" fill-opacity="0.5"/>
<path class="s8" d="M140.453 438.296H140.388C137.685 438.296 135.494 440.487 135.494 443.19V443.254C135.494 445.957 137.685 448.149 140.388 448.149H140.453C143.156 448.149 145.347 445.957 145.347 443.254V443.19C145.347 440.487 143.156 438.296 140.453 438.296Z" fill="#737373" fill-opacity="0.5"/>
<path class="s9" d="M140.453 478.287H140.388C137.685 478.287 135.494 480.478 135.494 483.181V483.246C135.494 485.949 137.685 488.14 140.388 488.14H140.453C143.156 488.14 145.347 485.949 145.347 483.246V483.181C145.347 480.478 143.156 478.287 140.453 478.287Z" fill="#737373" fill-opacity="0.5"/>
<path class="s10" d="M100.847 478.287H100.783C98.0799 478.287 95.8887 480.478 95.8887 483.181V483.246C95.8887 485.949 98.0799 488.14 100.783 488.14H100.847C103.55 488.14 105.742 485.949 105.742 483.246V483.181C105.742 480.478 103.55 478.287 100.847 478.287Z" fill="#737373" fill-opacity="0.5"/>
<path class="s11" d="M255.339 344.854C266.222 344.854 274.98 353.676 274.98 364.495C274.98 375.378 266.158 384.137 255.339 384.137C244.455 384.137 235.697 375.314 235.697 364.495C235.697 353.612 244.52 344.854 255.339 344.854Z" fill="#737373" fill-opacity="0.5"/>
<path class="s12" d="M255.339 305.57C266.222 305.57 274.98 314.393 274.98 325.212C274.98 336.095 266.158 344.853 255.339 344.853C244.455 344.853 235.697 336.031 235.697 325.212C235.697 314.328 244.52 305.57 255.339 305.57Z" fill="#737373" fill-opacity="0.5"/>
<path class="s13" d="M314.392 305.571H275.045V344.918H314.392V305.571Z" fill="#737373" fill-opacity="0.5"/>
<path class="s14" d="M314.392 266.223H275.045V305.571H314.392V266.223Z" fill="#737373" fill-opacity="0.5"/>
<path class="s15" d="M265.192 433.337H245.551V452.978H265.192V433.337Z" fill="#737373" fill-opacity="0.5"/>
<path class="s1" d="M304.476 433.337H284.834V452.978H304.476V433.337Z" fill="#737373" fill-opacity="0.5"/>
<path class="s2" d="M343.823 394.054H324.182V413.695H343.823V394.054Z" fill="#737373" fill-opacity="0.5"/>
<path class="s3" d="M463.796 276.076H444.154V295.718H463.796V276.076Z" fill="#737373" fill-opacity="0.5"/>
<path class="s4" d="M492.968 276.076C498.378 276.076 502.821 280.455 502.821 285.929C502.821 291.339 498.442 295.782 492.968 295.782C487.559 295.782 483.115 291.403 483.115 285.929C483.115 280.52 487.494 276.076 492.968 276.076Z" fill="#737373" fill-opacity="0.5"/>
<path class="s5" d="M295.265 394.054C300.675 394.054 305.118 398.433 305.118 403.907C305.118 409.316 300.739 413.76 295.265 413.76C289.856 413.76 285.412 409.381 285.412 403.907C285.412 398.497 289.791 394.054 295.265 394.054Z" fill="#737373" fill-opacity="0.5"/>
<path class="s6" d="M254.566 394.054C259.975 394.054 264.419 398.433 264.419 403.907C264.419 409.316 260.04 413.76 254.566 413.76C249.156 413.76 244.713 409.381 244.713 403.907C244.713 398.497 249.092 394.054 254.566 394.054Z" fill="#737373" fill-opacity="0.5"/>
<path class="s7" d="M265.192 472.684H245.551V492.326H265.192V472.684Z" fill="#737373" fill-opacity="0.5"/>
<path class="s8" d="M304.476 472.684H284.834V492.326H304.476V472.684Z" fill="#737373" fill-opacity="0.5"/>
<path class="s9" d="M334.035 433.337C339.444 433.337 343.888 437.716 343.888 443.19C343.888 448.599 339.508 453.043 334.035 453.043C328.625 453.043 324.182 448.664 324.182 443.19C324.182 437.78 328.561 433.337 334.035 433.337Z" fill="#737373" fill-opacity="0.5"/>
<path class="s10" d="M373.318 433.337C378.727 433.337 383.171 437.716 383.171 443.19C383.171 448.599 378.792 453.043 373.318 453.043C367.908 453.043 363.465 448.664 363.465 443.19C363.465 437.78 367.844 433.337 373.318 433.337Z" fill="#737373" fill-opacity="0.5"/>
<path class="s11" d="M383.171 472.684H363.529V492.326H383.171V472.684Z" fill="#737373" fill-opacity="0.5"/>
<path class="s12" d="M502.757 472.684H483.115V492.326H502.757V472.684Z" fill="#737373" fill-opacity="0.5"/>
<path class="s13" d="M647.975 423.548C637.092 423.548 628.334 414.726 628.334 403.907C628.334 393.024 637.157 384.265 647.975 384.265C658.859 384.265 667.617 393.088 667.617 403.907C667.617 414.79 658.794 423.548 647.975 423.548Z" fill="#737373" fill-opacity="0.5"/>
<path class="s14" d="M628.334 384.201H588.986V423.548H628.334V384.201Z" fill="#737373" fill-opacity="0.5"/>
<path class="s15" d="M628.334 305.57H588.986V344.918H628.334V305.57Z" fill="#737373" fill-opacity="0.5"/>
<path class="s1" d="M628.334 266.223H588.986V305.571H628.334V266.223Z" fill="#737373" fill-opacity="0.5"/>
<path class="s2" d="M588.988 384.201H549.641V423.548H588.988V384.201Z" fill="#737373" fill-opacity="0.5"/>
<path class="s3" d="M588.988 344.854H549.641V384.201H588.988V344.854Z" fill="#737373" fill-opacity="0.5"/>
<path class="s4" d="M529.999 423.548C519.116 423.548 510.357 414.726 510.357 403.907C510.357 393.024 519.18 384.265 529.999 384.265C540.882 384.265 549.64 393.088 549.64 403.907C549.64 414.79 540.818 423.548 529.999 423.548Z" fill="#737373" fill-opacity="0.5"/>
<path class="s5" d="M569.282 462.831C558.399 462.831 549.641 454.009 549.641 443.19C549.641 432.307 558.463 423.548 569.282 423.548C580.165 423.548 588.924 432.371 588.924 443.19C588.924 454.073 580.101 462.831 569.282 462.831Z" fill="#737373" fill-opacity="0.5"/>
<path class="s6" d="M549.64 423.548H510.293V462.896H549.64V423.548Z" fill="#737373" fill-opacity="0.5"/>
<path class="s7" d="M588.988 462.832H549.641V502.179H588.988V462.832Z" fill="#737373" fill-opacity="0.5"/>
<path class="s8" d="M529.999 384.201C519.116 384.201 510.357 375.378 510.357 364.559C510.357 353.676 519.18 344.918 529.999 344.918C540.882 344.918 549.64 353.741 549.64 364.559C549.64 375.443 540.818 384.201 529.999 384.201Z" fill="#737373" fill-opacity="0.5"/>
<path class="s9" d="M549.64 305.57H510.293V344.918H549.64V305.57Z" fill="#737373" fill-opacity="0.5"/>
<path class="s10" d="M805.302 438.296H805.238C802.535 438.296 800.344 440.487 800.344 443.19V443.254C800.344 445.957 802.535 448.149 805.238 448.149H805.302C808.005 448.149 810.197 445.957 810.197 443.254V443.19C810.197 440.487 808.005 438.296 805.302 438.296Z" fill="#737373" fill-opacity="0.5"/>
<path class="s11" d="M805.302 478.287H805.238C802.535 478.287 800.344 480.478 800.344 483.181V483.246C800.344 485.949 802.535 488.14 805.238 488.14H805.302C808.005 488.14 810.197 485.949 810.197 483.246V483.181C810.197 480.478 808.005 478.287 805.302 478.287Z" fill="#737373" fill-opacity="0.5"/>
<path class="s12" d="M687.259 478.287H687.195C684.492 478.287 682.301 480.478 682.301 483.181V483.246C682.301 485.949 684.492 488.14 687.195 488.14H687.259C689.962 488.14 692.153 485.949 692.153 483.246V483.181C692.153 480.478 689.962 478.287 687.259 478.287Z" fill="#737373" fill-opacity="0.5"/>
<path class="s13" d="M844.328 438.296H844.263C841.56 438.296 839.369 440.487 839.369 443.19V443.254C839.369 445.957 841.56 448.149 844.263 448.149H844.328C847.031 448.149 849.222 445.957 849.222 443.254V443.19C849.222 440.487 847.031 438.296 844.328 438.296Z" fill="#737373" fill-opacity="0.5"/>
<path class="s14" d="M844.328 478.287H844.263C841.56 478.287 839.369 480.478 839.369 483.181V483.246C839.369 485.949 841.56 488.14 844.263 488.14H844.328C847.031 488.14 849.222 485.949 849.222 483.246V483.181C849.222 480.478 847.031 478.287 844.328 478.287Z" fill="#737373" fill-opacity="0.5"/>
<path class="s15" d="M880.904 438.296H880.84C878.137 438.296 875.945 440.487 875.945 443.19V443.254C875.945 445.957 878.137 448.149 880.84 448.149H880.904C883.607 448.149 885.798 445.957 885.798 443.254V443.19C885.798 440.487 883.607 438.296 880.904 438.296Z" fill="#737373" fill-opacity="0.5"/>
<path class="s1" d="M880.904 478.287H880.84C878.137 478.287 875.945 480.478 875.945 483.181V483.246C875.945 485.949 878.137 488.14 880.84 488.14H880.904C883.607 488.14 885.798 485.949 885.798 483.246V483.181C885.798 480.478 883.607 478.287 880.904 478.287Z" fill="#737373" fill-opacity="0.5"/>
<path class="s2" d="M920.51 478.287H920.445C917.742 478.287 915.551 480.478 915.551 483.181V483.246C915.551 485.949 917.742 488.14 920.445 488.14H920.51C923.213 488.14 925.404 485.949 925.404 483.246V483.181C925.404 480.478 923.213 478.287 920.51 478.287Z" fill="#737373" fill-opacity="0.5"/>
<path class="s3" d="M775.743 433.337H756.102V452.978H775.743V433.337Z" fill="#737373" fill-opacity="0.5"/>
<path class="s4" d="M736.395 433.337H716.754V452.978H736.395V433.337Z" fill="#737373" fill-opacity="0.5"/>
<path class="s5" d="M697.112 394.054H677.471V413.695H697.112V394.054Z" fill="#737373" fill-opacity="0.5"/>
<path class="s6" d="M577.073 276.076H557.432V295.718H577.073V276.076Z" fill="#737373" fill-opacity="0.5"/>
<path class="s7" d="M528.324 295.718C522.914 295.718 518.471 291.339 518.471 285.865C518.471 280.455 522.85 276.012 528.324 276.012C533.733 276.012 538.177 280.391 538.177 285.865C538.177 291.274 533.798 295.718 528.324 295.718Z" fill="#737373" fill-opacity="0.5"/>
<path class="s8" d="M726.027 413.695C720.617 413.695 716.174 409.316 716.174 403.842C716.174 398.433 720.553 393.99 726.027 393.99C731.436 393.99 735.88 398.369 735.88 403.842C735.88 409.252 731.501 413.695 726.027 413.695Z" fill="#737373" fill-opacity="0.5"/>
<path class="s9" d="M766.728 413.695C761.318 413.695 756.875 409.316 756.875 403.842C756.875 398.433 761.254 393.99 766.728 393.99C772.137 393.99 776.581 398.369 776.581 403.842C776.581 409.252 772.202 413.695 766.728 413.695Z" fill="#737373" fill-opacity="0.5"/>
<path class="s10" d="M775.743 472.684H756.102V492.326H775.743V472.684Z" fill="#737373" fill-opacity="0.5"/>
<path class="s11" d="M736.395 472.684H716.754V492.326H736.395V472.684Z" fill="#737373" fill-opacity="0.5"/>
<path class="s12" d="M687.259 453.043C681.85 453.043 677.406 448.664 677.406 443.19C677.406 437.78 681.785 433.337 687.259 433.337C692.669 433.337 697.112 437.716 697.112 443.19C697.112 448.599 692.733 453.043 687.259 453.043Z" fill="#737373" fill-opacity="0.5"/>
<path class="s13" d="M805.302 280.713H805.238C802.535 280.713 800.344 282.904 800.344 285.607V285.671C800.344 288.374 802.535 290.566 805.238 290.566H805.302C808.005 290.566 810.197 288.374 810.197 285.671V285.607C810.197 282.904 808.005 280.713 805.302 280.713Z" fill="#737373" fill-opacity="0.5"/>
<path class="s14" d="M805.302 320.704H805.238C802.535 320.704 800.344 322.895 800.344 325.598V325.663C800.344 328.366 802.535 330.557 805.238 330.557H805.302C808.005 330.557 810.197 328.366 810.197 325.663V325.598C810.197 322.895 808.005 320.704 805.302 320.704Z" fill="#737373" fill-opacity="0.5"/>
<path class="s15" d="M687.259 320.704H687.195C684.492 320.704 682.301 322.895 682.301 325.598V325.663C682.301 328.366 684.492 330.557 687.195 330.557H687.259C689.962 330.557 692.153 328.366 692.153 325.663V325.598C692.153 322.895 689.962 320.704 687.259 320.704Z" fill="#737373" fill-opacity="0.5"/>
<path class="s1" d="M844.328 280.713H844.263C841.56 280.713 839.369 282.904 839.369 285.607V285.671C839.369 288.374 841.56 290.566 844.263 290.566H844.328C847.031 290.566 849.222 288.374 849.222 285.671V285.607C849.222 282.904 847.031 280.713 844.328 280.713Z" fill="#737373" fill-opacity="0.5"/>
<path class="s2" d="M844.328 320.704H844.263C841.56 320.704 839.369 322.895 839.369 325.598V325.663C839.369 328.366 841.56 330.557 844.263 330.557H844.328C847.031 330.557 849.222 328.366 849.222 325.663V325.598C849.222 322.895 847.031 320.704 844.328 320.704Z" fill="#737373" fill-opacity="0.5"/>
<path class="s3" d="M880.904 280.713H880.84C878.137 280.713 875.945 282.904 875.945 285.607V285.671C875.945 288.374 878.137 290.566 880.84 290.566H880.904C883.607 290.566 885.798 288.374 885.798 285.671V285.607C885.798 282.904 883.607 280.713 880.904 280.713Z" fill="#737373" fill-opacity="0.5"/>
<path class="s4" d="M880.904 320.704H880.84C878.137 320.704 875.945 322.895 875.945 325.598V325.663C875.945 328.366 878.137 330.557 880.84 330.557H880.904C883.607 330.557 885.798 328.366 885.798 325.663V325.598C885.798 322.895 883.607 320.704 880.904 320.704Z" fill="#737373" fill-opacity="0.5"/>
<path class="s5" d="M775.743 275.754H756.102V295.395H775.743V275.754Z" fill="#737373" fill-opacity="0.5"/>
<path class="s6" d="M736.395 275.754H716.754V295.395H736.395V275.754Z" fill="#737373" fill-opacity="0.5"/>
<path class="s7" d="M775.743 315.102H756.102V334.743H775.743V315.102Z" fill="#737373" fill-opacity="0.5"/>
<path class="s8" d="M736.395 315.102H716.754V334.743H736.395V315.102Z" fill="#737373" fill-opacity="0.5"/>
<path class="s9" d="M687.259 295.46C681.85 295.46 677.406 291.081 677.406 285.607C677.406 280.197 681.785 275.754 687.259 275.754C692.669 275.754 697.112 280.133 697.112 285.607C697.112 291.016 692.733 295.46 687.259 295.46Z" fill="#737373" fill-opacity="0.5"/>
<path class="s10" d="M647.976 453.043C642.567 453.043 638.123 448.664 638.123 443.19C638.123 437.78 642.502 433.337 647.976 433.337C653.385 433.337 657.829 437.716 657.829 443.19C657.829 448.599 653.45 453.043 647.976 453.043Z" fill="#737373" fill-opacity="0.5"/>
<path class="s11" d="M657.765 472.684H638.123V492.326H657.765V472.684Z" fill="#737373" fill-opacity="0.5"/>
<path class="s12" d="M538.112 472.684H518.471V492.326H538.112V472.684Z" fill="#737373" fill-opacity="0.5"/>
<path class="s13" d="M373.317 384.201C384.201 384.201 392.959 393.024 392.959 403.842C392.959 414.726 384.136 423.484 373.317 423.484C362.434 423.484 353.676 414.661 353.676 403.842C353.676 392.959 362.498 384.201 373.317 384.201Z" fill="#737373" fill-opacity="0.5"/>
<path class="s14" d="M432.371 384.201H393.023V423.548H432.371V384.201Z" fill="#737373" fill-opacity="0.5"/>
<path class="s15" d="M432.371 266.223H393.023V305.571H432.371V266.223Z" fill="#737373" fill-opacity="0.5"/>
<path class="s1" d="M216.056 438.296H215.992C213.289 438.296 211.098 440.487 211.098 443.19V443.254C211.098 445.957 213.289 448.149 215.992 448.149H216.056C218.759 448.149 220.951 445.957 220.951 443.254V443.19C220.951 440.487 218.759 438.296 216.056 438.296Z" fill="#737373" fill-opacity="0.5"/>
<path class="s2" d="M216.056 478.287H215.992C213.289 478.287 211.098 480.478 211.098 483.181V483.246C211.098 485.949 213.289 488.14 215.992 488.14H216.056C218.759 488.14 220.951 485.949 220.951 483.246V483.181C220.951 480.478 218.759 478.287 216.056 478.287Z" fill="#737373" fill-opacity="0.5"/>
<path class="s3" d="M334.097 478.287H334.033C331.33 478.287 329.139 480.478 329.139 483.181V483.246C329.139 485.949 331.33 488.14 334.033 488.14H334.097C336.8 488.14 338.992 485.949 338.992 483.246V483.181C338.992 480.478 336.8 478.287 334.097 478.287Z" fill="#737373" fill-opacity="0.5"/>
<path class="s4" d="M255.339 305.57C266.222 305.57 274.98 314.393 274.98 325.212C274.98 336.095 266.158 344.853 255.339 344.853C244.455 344.853 235.697 336.031 235.697 325.212C235.697 314.328 244.52 305.57 255.339 305.57Z" fill="#737373" fill-opacity="0.5"/>
<path class="s5" d="M314.392 305.571H275.045V344.918H314.392V305.571Z" fill="#737373" fill-opacity="0.5"/>
<path class="s6" d="M314.392 266.223H275.045V305.571H314.392V266.223Z" fill="#737373" fill-opacity="0.5"/>
<path class="s7" d="M265.192 433.337H245.551V452.978H265.192V433.337Z" fill="#737373" fill-opacity="0.5"/>
<path class="s8" d="M304.476 433.337H284.834V452.978H304.476V433.337Z" fill="#737373" fill-opacity="0.5"/>
<path class="s9" d="M343.823 394.054H324.182V413.695H343.823V394.054Z" fill="#737373" fill-opacity="0.5"/>
<path class="s10" d="M295.265 394.054C300.675 394.054 305.118 398.433 305.118 403.907C305.118 409.316 300.739 413.76 295.265 413.76C289.856 413.76 285.412 409.381 285.412 403.907C285.412 398.497 289.791 394.054 295.265 394.054Z" fill="#737373" fill-opacity="0.5"/>
<path class="s11" d="M254.566 394.054C259.975 394.054 264.419 398.433 264.419 403.907C264.419 409.316 260.04 413.76 254.566 413.76C249.156 413.76 244.713 409.381 244.713 403.907C244.713 398.497 249.092 394.054 254.566 394.054Z" fill="#737373" fill-opacity="0.5"/>
<path class="s12" d="M265.192 472.684H245.551V492.326H265.192V472.684Z" fill="#737373" fill-opacity="0.5"/>
<path class="s13" d="M304.476 472.684H284.834V492.326H304.476V472.684Z" fill="#737373" fill-opacity="0.5"/>
<path class="s14" d="M334.035 433.337C339.444 433.337 343.888 437.716 343.888 443.19C343.888 448.599 339.508 453.043 334.035 453.043C328.625 453.043 324.182 448.664 324.182 443.19C324.182 437.78 328.561 433.337 334.035 433.337Z" fill="#737373" fill-opacity="0.5"/>
<path class="s15" d="M373.318 433.337C378.727 433.337 383.171 437.716 383.171 443.19C383.171 448.599 378.792 453.043 373.318 453.043C367.908 453.043 363.465 448.664 363.465 443.19C363.465 437.78 367.844 433.337 373.318 433.337Z" fill="#737373" fill-opacity="0.5"/>
<path class="s1" d="M383.171 472.684H363.529V492.326H383.171V472.684Z" fill="#737373" fill-opacity="0.5"/>
<path class="s2" d="M962.561 423.548C951.678 423.548 942.92 414.726 942.92 403.907C942.92 393.024 951.743 384.265 962.561 384.265C973.445 384.265 982.203 393.088 982.203 403.907C982.203 414.79 973.38 423.548 962.561 423.548Z" fill="#737373" fill-opacity="0.5"/>
<path class="s3" d="M942.922 305.57H903.574V344.918H942.922V305.57Z" fill="#737373" fill-opacity="0.5"/>
<path class="s4" d="M1001.85 478.287H1001.78C999.078 478.287 996.887 480.478 996.887 483.181V483.246C996.887 485.949 999.078 488.14 1001.78 488.14H1001.85C1004.55 488.14 1006.74 485.949 1006.74 483.246V483.181C1006.74 480.478 1004.55 478.287 1001.85 478.287Z" fill="#737373" fill-opacity="0.5"/>
<path class="s5" d="M1002.23 237.308H1002.17C999.465 237.308 997.273 239.499 997.273 242.202V242.267C997.273 244.97 999.465 247.161 1002.17 247.161H1002.23C1004.94 247.161 1007.13 244.97 1007.13 242.267V242.202C1007.13 239.499 1004.94 237.308 1002.23 237.308Z" fill="#737373" fill-opacity="0.5"/>
<path class="s6" d="M1002.23 277.3H1002.17C999.465 277.3 997.273 279.491 997.273 282.194V282.258C997.273 284.961 999.465 287.153 1002.17 287.153H1002.23C1004.94 287.153 1007.13 284.961 1007.13 282.258V282.194C1007.13 279.491 1004.94 277.3 1002.23 277.3Z" fill="#737373" fill-opacity="0.5"/>
<path class="s7" d="M1011.7 394.054H992.057V413.695H1011.7V394.054Z" fill="#737373" fill-opacity="0.5"/>
<path class="s8" d="M1001.85 453.043C996.436 453.043 991.992 448.664 991.992 443.19C991.992 437.78 996.371 433.337 1001.85 433.337C1007.25 433.337 1011.7 437.716 1011.7 443.19C1011.7 448.599 1007.32 453.043 1001.85 453.043Z" fill="#737373" fill-opacity="0.5"/>
<path class="s9" d="M962.562 453.043C957.152 453.043 952.709 448.664 952.709 443.19C952.709 437.78 957.088 433.337 962.562 433.337C967.971 433.337 972.415 437.716 972.415 443.19C972.415 448.599 968.036 453.043 962.562 453.043Z" fill="#737373" fill-opacity="0.5"/>
<path class="s10" d="M972.35 472.684H952.709V492.326H972.35V472.684Z" fill="#737373" fill-opacity="0.5"/>
<path class="s11" d="M19.6415 422.518C8.75818 422.518 0 413.695 0 402.876C0 391.993 8.82258 383.235 19.6415 383.235C30.5248 383.235 39.283 392.057 39.283 402.876C39.283 413.76 30.4604 422.518 19.6415 422.518Z" fill="#737373" fill-opacity="0.5"/>
<path class="s12" d="M39.3474 343.887H0V383.235H39.3474V343.887Z" fill="#737373" fill-opacity="0.5"/>
<path class="s13" d="M39.3474 304.54H0V343.887H39.3474V304.54Z" fill="#737373" fill-opacity="0.5"/>
<path class="s14" d="M58.988 477.257H58.9236C56.2205 477.257 54.0293 479.448 54.0293 482.151V482.215C54.0293 484.919 56.2205 487.11 58.9236 487.11H58.988C61.691 487.11 63.8823 484.919 63.8823 482.215V482.151C63.8823 479.448 61.691 477.257 58.988 477.257Z" fill="#737373" fill-opacity="0.5"/>
<path class="s15" d="M59.3748 276.334H59.3104C56.6074 276.334 54.4161 278.525 54.4161 281.228V281.292C54.4161 283.995 56.6074 286.187 59.3104 286.187H59.3748C62.0779 286.187 64.2691 283.995 64.2691 281.292V281.228C64.2691 278.525 62.0779 276.334 59.3748 276.334Z" fill="#737373" fill-opacity="0.5"/>
<path class="s1" d="M137.618 383.17C126.735 383.17 117.977 374.348 117.977 363.529C117.977 352.646 126.799 343.887 137.618 343.887C148.501 343.887 157.26 352.71 157.26 363.529C157.26 374.412 148.437 383.17 137.618 383.17Z" fill="#737373" fill-opacity="0.5"/>
<path class="s2" d="M137.618 343.888C126.735 343.888 117.977 335.065 117.977 324.246C117.977 313.363 126.799 304.604 137.618 304.604C148.501 304.604 157.26 313.427 157.26 324.246C157.26 335.129 148.437 343.888 137.618 343.888Z" fill="#737373" fill-opacity="0.5"/>
<path class="s3" d="M117.976 304.54H78.6289V343.887H117.976V304.54Z" fill="#737373" fill-opacity="0.5"/>
<path class="s4" d="M117.976 265.257H78.6289V304.604H117.976V265.257Z" fill="#737373" fill-opacity="0.5"/>
<path class="s5" d="M147.472 432.371H127.83V452.013H147.472V432.371Z" fill="#737373" fill-opacity="0.5"/>
<path class="s6" d="M108.124 432.371H88.4824V452.013H108.124V432.371Z" fill="#737373" fill-opacity="0.5"/>
<path class="s7" d="M68.7782 393.023H49.1367V412.665H68.7782V393.023Z" fill="#737373" fill-opacity="0.5"/>
<path class="s8" d="M97.7573 412.665C92.3478 412.665 87.9043 408.286 87.9043 402.812C87.9043 397.402 92.2834 392.959 97.7573 392.959C103.167 392.959 107.61 397.338 107.61 402.812C107.61 408.221 103.231 412.665 97.7573 412.665Z" fill="#737373" fill-opacity="0.5"/>
<path class="s9" d="M138.456 412.665C133.047 412.665 128.604 408.286 128.604 402.812C128.604 397.402 132.983 392.959 138.456 392.959C143.866 392.959 148.309 397.338 148.309 402.812C148.309 408.221 143.93 412.665 138.456 412.665Z" fill="#737373" fill-opacity="0.5"/>
<path class="s10" d="M147.472 471.654H127.83V491.296H147.472V471.654Z" fill="#737373" fill-opacity="0.5"/>
<path class="s11" d="M108.124 471.654H88.4824V491.296H108.124V471.654Z" fill="#737373" fill-opacity="0.5"/>
<path class="s12" d="M58.9897 452.013C53.5802 452.013 49.1367 447.633 49.1367 442.16C49.1367 436.75 53.5158 432.307 58.9897 432.307C64.3991 432.307 68.8426 436.686 68.8426 442.16C68.8426 447.569 64.4635 452.013 58.9897 452.013Z" fill="#737373" fill-opacity="0.5"/>
<path class="s13" d="M58.9892 383.17C48.1058 383.17 39.3477 374.348 39.3477 363.529C39.3477 352.646 48.1702 343.887 58.9892 343.887C69.8725 343.887 78.6307 352.71 78.6307 363.529C78.6307 374.412 69.8081 383.17 58.9892 383.17Z" fill="#737373" fill-opacity="0.5"/>
<path class="s14" d="M78.6951 304.54H39.3477V343.887H78.6951V304.54Z" fill="#737373" fill-opacity="0.5"/>
<path class="s15" d="M196.674 265.257H157.326V304.604H196.674V265.257Z" fill="#737373" fill-opacity="0.5"/>
</svg>
