<svg width="35" height="48" viewBox="0 0 35 48" fill="none" xmlns="http://www.w3.org/2000/svg">
<path d="M33.8578 26.2388C33.0278 32.2088 30.8878 37.9888 27.6278 42.1688C24.4278 46.2788 20.6279 48.2588 16.9379 47.7488L10.1678 46.8088L10.2679 46.0688L17.0378 47.0088C20.4578 47.4888 24.0078 45.5988 27.0378 41.7088C33.3978 33.5388 35.4179 19.0888 31.5179 9.49881C29.6679 4.92881 26.7578 2.14879 23.3478 1.66879L16.9579 0.778809L17.0579 0.0388184L23.4478 0.928802C27.1378 1.4388 30.2479 4.38881 32.2079 9.21881C34.1979 14.1288 34.6778 20.2788 33.8478 26.2388H33.8578Z" fill="#A1A1A1"/>
<path d="M16.1875 45.7788L21.8375 46.5688C22.2275 46.3888 22.6075 46.1788 22.9875 45.9488L16.2575 45.0088L16.1875 45.7788Z" fill="#A1A1A1"/>
<path d="M19.3086 43.5088L25.1386 44.3188C25.3786 44.0988 25.6186 43.8788 25.8486 43.6388L19.3786 42.7388L19.3086 43.5088Z" fill="#A1A1A1"/>
<path d="M21.4178 41.0986L27.3478 41.9286C27.5278 41.6986 27.6878 41.4486 27.8578 41.2186L21.4979 40.3286L21.4279 41.0986H21.4178Z" fill="#A1A1A1"/>
<path d="M23.1582 38.6487L29.0082 39.4586C29.1482 39.2186 29.2982 38.9786 29.4382 38.7386L23.2282 37.8787L23.1582 38.6487Z" fill="#A1A1A1"/>
<path d="M24.377 36.1189L30.367 36.9489C30.477 36.7089 30.587 36.4589 30.697 36.2089L24.457 35.3389L24.387 36.1089L24.377 36.1189Z" fill="#A1A1A1"/>
<path d="M25.4178 33.5588L31.4379 34.3988C31.5279 34.1488 31.6178 33.8988 31.6978 33.6488L25.4879 32.7888L25.4178 33.5588Z" fill="#A1A1A1"/>
<path d="M26.4979 30.3088L26.4279 31.0088L32.2779 31.8188C32.3479 31.5688 32.4279 31.3188 32.4979 31.0688L26.5078 30.2388V30.3188L26.4979 30.3088Z" fill="#A1A1A1"/>
<path d="M26.7676 28.3486L32.9476 29.2086C33.0076 28.9586 33.0676 28.7086 33.1176 28.4486L26.8776 27.5786L26.7676 28.3486Z" fill="#A1A1A1"/>
<path d="M27.1387 25.6987L33.4287 26.5787C33.4687 26.3187 33.4987 26.0687 33.5387 25.8087L27.2487 24.9287L27.1387 25.6987Z" fill="#A1A1A1"/>
<path d="M27.5078 23.0488L33.7478 23.9188C33.7678 23.6588 33.7778 23.3988 33.7878 23.1388L27.6078 22.2788L27.4978 23.0488H27.5078Z" fill="#A1A1A1"/>
<path d="M27.877 20.3987L33.867 21.2287C33.867 20.9687 33.867 20.7086 33.867 20.4486L27.987 19.6287L27.877 20.3987Z" fill="#A1A1A1"/>
<path d="M27.6079 17.6687L33.7979 18.5287C33.7779 18.2687 33.7679 17.9987 33.7479 17.7387L27.7079 16.8987L27.5979 17.6687H27.6079Z" fill="#A1A1A1"/>
<path d="M27.3086 14.9187L33.5386 15.7887C33.4986 15.5187 33.4686 15.2487 33.4186 14.9887L27.4186 14.1487L27.3086 14.9187Z" fill="#A1A1A1"/>
<path d="M26.5373 12.1186L33.0173 13.0186C32.9473 12.7386 32.8673 12.4786 32.7973 12.2086L26.6373 11.3486L26.5273 12.1186H26.5373Z" fill="#A1A1A1"/>
<path d="M25.8887 9.32883L32.1787 10.2088C32.0787 9.93883 31.9887 9.64882 31.8887 9.38882L25.9987 8.56885L25.8887 9.33884V9.32883Z" fill="#A1A1A1"/>
<path d="M24.4475 6.42871L30.8975 7.3287C30.7375 7.0287 30.5675 6.74873 30.3975 6.47873L24.5475 5.6687L24.4375 6.43872L24.4475 6.42871Z" fill="#A1A1A1"/>
<path d="M22.0686 3.39865L28.7786 4.32864C28.4786 3.99864 28.1586 3.68864 27.8386 3.41864L22.1686 2.62866L22.0586 3.39865H22.0686Z" fill="#A1A1A1"/>
<path d="M27.7079 25.3887C26.8779 31.3587 24.7378 37.1388 21.4778 41.3188C18.2778 45.4288 14.4778 47.4087 10.7878 46.8987C7.09784 46.3887 3.98786 43.4387 2.02786 38.6087C-1.95214 28.7887 0.107856 14.0088 6.61786 5.65875C9.81786 1.54875 13.6179 -0.431266 17.3079 0.0787339C20.9979 0.588734 24.1078 3.53874 26.0678 8.36874C28.0578 13.2787 28.5379 19.4287 27.7079 25.3887ZM1.10785 21.6887C0.297846 27.5187 0.767852 33.5287 2.70785 38.3287C4.55785 42.8987 7.46784 45.6788 10.8778 46.1588C14.2878 46.6388 17.8478 44.7487 20.8778 40.8587C27.2378 32.6887 29.2578 18.2387 25.3578 8.64874C23.5078 4.07874 20.6079 1.29875 17.1879 0.818755C13.7679 0.338755 10.2179 2.22874 7.18786 6.11874C4.00786 10.1987 1.90784 15.8587 1.09784 21.6887H1.10785Z" fill="#A1A1A1"/>
<path d="M25.3971 25.0688C24.6671 30.2888 22.797 35.3488 19.947 39.0088C17.137 42.6088 13.807 44.3488 10.567 43.8988C7.32704 43.4488 4.59704 40.8688 2.87704 36.6288C-0.602964 28.0388 1.19705 15.1088 6.88705 7.79881C9.69705 4.19881 13.0271 2.45882 16.2671 2.90882C19.5071 3.35882 22.2371 5.93881 23.9571 10.1788C25.6971 14.4688 26.1171 19.8488 25.3971 25.0688ZM2.17705 21.8288C1.46705 26.9188 1.87705 32.1588 3.57705 36.3388C5.18705 40.3188 7.71705 42.7388 10.6771 43.1488C13.6371 43.5588 16.7271 41.9288 19.3671 38.5388C24.9171 31.4188 26.6771 18.8188 23.2771 10.4488C21.6671 6.4688 19.1371 4.0488 16.1771 3.6388C13.2071 3.2288 10.1271 4.85882 7.48705 8.24882C4.71705 11.8088 2.88705 16.7388 2.17705 21.8288Z" fill="#A1A1A1"/>
</svg>
