<svg width="167" height="48" viewBox="0 0 167 48" fill="none" xmlns="http://www.w3.org/2000/svg">
<path d="M73.0809 26.1728L67.8196 9.77881H71.5097L74.938 20.7388L78.5563 9.77881H82.1508L85.7214 20.7388L89.1724 9.77881H92.8386L87.5545 26.1728H83.8415L80.3188 15.0012L76.7721 26.1728H73.082H73.0809Z" fill="white"/>
<path d="M76.7711 31.0171L80.3178 42.1887L83.8405 31.0171H87.5534L92.8375 47.4111H89.1714L85.7203 36.4511L82.1498 47.4111H78.5553L74.9369 36.4511L71.5087 47.4111H67.8186L73.0799 31.0171H76.77H76.7711Z" fill="white"/>
<path d="M94.6238 26.1728V9.77881H98.2183V16.2423H105.169V9.77881H108.764V26.1728H105.169V19.5682H98.2183V26.1728H94.6238Z" fill="white"/>
<path d="M110.549 26.1728L117.69 9.77881H121.403L128.544 26.1728H124.592L123.188 22.9881H115.904L114.523 26.1728H110.548H110.549ZM117.072 19.8728H122.024L119.572 14.1587H119.524L117.073 19.8728H117.072Z" fill="white"/>
<path d="M130.33 26.1728V9.77881H133.924V22.9175H139.923V26.1728H130.33Z" fill="white"/>
<path d="M142.279 26.1728V9.77881H151.587V13.0341H145.873V16.2423H151.301V19.4976H145.873V22.9165H151.705V26.1717H142.279V26.1728Z" fill="white"/>
<path d="M160.489 16.1248C163.036 16.7802 166.107 17.6707 166.107 21.3707C166.107 24.3448 163.608 26.4765 159.942 26.4765C157.323 26.4765 155.348 25.5165 153.729 23.6895L156.204 21.4177C157.203 22.5189 158.251 23.2212 159.941 23.2212C161.726 23.2212 162.512 22.4718 162.512 21.4648C162.512 20.2706 160.892 19.8954 159.037 19.3801C156.609 18.7248 154.109 17.6001 154.109 14.2743C154.109 11.4402 156.442 9.47314 159.798 9.47314C162.441 9.47314 164.059 10.4096 165.606 11.932L163.131 14.1332C162.321 13.3132 161.226 12.7284 159.774 12.7284C158.441 12.7284 157.703 13.2908 157.703 14.2037C157.703 15.2813 158.941 15.7261 160.488 16.1238L160.489 16.1248Z" fill="white"/>
<path d="M92.6962 47.4101L99.8373 31.0161H103.55L110.691 47.4101H106.739L105.336 44.2254H98.051L96.6699 47.4101H92.6951H92.6962ZM99.2191 41.1102H104.171L101.719 35.3961H101.672L99.2202 41.1102H99.2191Z" fill="white"/>
<path d="M121.617 47.4101L117.237 41.5079H115.452V47.4101H111.881V31.0161H118.475C121.046 31.0161 123.807 32.7491 123.807 36.262C123.807 38.6278 122.545 40.1961 120.926 40.9691L125.663 47.4091H121.616L121.617 47.4101ZM115.452 38.4407H117.903C119.403 38.4407 120.212 37.5278 120.212 36.2631C120.212 34.9984 119.403 34.0854 117.903 34.0854H115.452V38.4418V38.4407Z" fill="white"/>
<path d="M130.425 39.7759V47.4111H126.855V31.0171H130.425V38.0429L136.019 31.0171H140.233L134.02 38.91L140.471 47.4111H136.281L130.425 39.7759Z" fill="white"/>
<path d="M142.279 47.4101V31.0161H151.587V34.2714H145.873V37.4796H151.301V40.7349H145.873V44.1538H151.705V47.4091H142.279V47.4101Z" fill="white"/>
<path d="M158.132 47.4101V34.2714H153.68V31.0161H166.154V34.2714H161.702V47.4101H158.131H158.132Z" fill="white"/>
<path d="M80.6729 30.7689C81.9044 30.5722 82.7407 29.4306 82.5408 28.2189C82.3409 27.0073 81.1805 26.1845 79.949 26.3812C78.7175 26.5779 77.8812 27.7195 78.0811 28.9312C78.281 30.1428 79.4414 30.9656 80.6729 30.7689Z" fill="#19FB9B"/>
<path d="M17.5908 14.1719C16.5379 14.3301 16.0109 14.4081 14.958 14.5663C14.5255 9.2189 17.5691 5.15327 22.8847 3.96875C23.0444 5.00467 23.1249 5.52316 23.2857 6.55908C19.4272 7.5394 17.3941 10.2399 17.5919 14.1719H17.5908Z" fill="#19FB9B"/>
<path d="M50.1941 28.2357C50.1941 28.2357 49.854 24.9312 46.9419 24.5335C44.0287 24.1358 43.405 25.1611 43.405 25.1611C43.405 25.1611 45.588 27.2244 46.1834 29.9302C46.7789 32.6349 45.8151 33.2763 44.7948 32.4403C43.7733 31.6032 42.8389 29.9302 41.2231 25.3289C39.6073 20.7266 36.4888 15.5118 29.1477 12.6114C24.9589 10.9565 20.0518 10.6101 15.4511 11.6428C15.198 11.6257 14.9415 11.6086 14.6807 11.5915C7.42768 11.1318 4.01902 11.4985 3.16495 11.6172C3.03782 11.6354 2.91069 11.6418 2.78247 11.6525C2.18593 11.7016 1.60787 12.2447 1.43727 12.9417L0.149641 18.1994C-0.170906 19.5111 0.0377219 20.7811 0.639698 21.7144L0.636435 21.7123L1.46226 23.0497C1.28949 23.5201 1.13629 23.999 1.00589 24.4876C0.75815 25.4187 0.589721 26.3798 0.510399 27.3601C3.37793 25.9789 8.99347 23.9584 17.507 27.0758C29.7812 31.569 30.4614 37.3697 39.3618 39.6254C44.4666 40.919 47.069 39.2267 48.4685 37.1591C49.1379 35.8773 49.6073 34.4491 49.8116 32.8583C49.8116 32.8583 52.4053 32.6285 54.3394 31.4782C56.2747 30.3278 57.5286 29.2812 58.1882 29.0931C58.1882 29.0931 56.3377 25.7052 50.1941 28.2357Z" fill="#19FB9B"/>
<path d="M28.8529 4.96418C28.8778 2.27137 26.6792 0.0685856 23.9422 0.0441457C21.2052 0.0197058 18.9662 2.18286 18.9414 4.87568C18.9166 7.56849 21.1152 9.77128 23.8522 9.79572C26.5892 9.82016 28.8281 7.657 28.8529 4.96418Z" fill="#19FB9B"/>
<path d="M26.156 4.94042C26.1673 3.71297 25.1651 2.7089 23.9175 2.69776C22.67 2.68662 21.6494 3.67263 21.6381 4.90007C21.6268 6.12752 22.629 7.13159 23.8765 7.14273C25.1241 7.15387 26.1447 6.16786 26.156 4.94042Z" fill="white"/>
<path d="M48.4696 37.1592C45.6553 42.5536 39.3107 45.361 34.3645 46.8032C28.2415 48.5874 14.195 49.4833 6.01835 41.2248C1.67847 36.8417 0.143111 31.8909 0.511468 27.3602C3.379 25.979 8.99345 23.9584 17.508 27.0758C29.7823 31.5691 30.4625 37.3698 39.3628 39.6255C44.4677 40.9191 47.0701 39.2267 48.4696 37.1592Z" fill="#9945FF"/>
<path d="M2.12181 18.317L1.97075 18.936C1.80342 19.6223 1.80993 20.2947 1.96314 20.8913C2.02073 21.1147 2.09898 21.3274 2.19677 21.5263C2.25219 21.6396 2.31303 21.7497 2.38149 21.8534C2.40322 21.8887 2.42605 21.9208 2.44887 21.9529C2.55753 22.1079 2.68031 22.2501 2.81613 22.3762C3.02476 22.574 3.2649 22.7365 3.53003 22.8551C3.68216 22.9236 3.84405 22.9781 4.01248 23.0166L5.85099 22.6392L6.25847 22.5558L6.69746 22.466L2.76615 15.686L2.12181 18.317Z" fill="#260246"/>
<path d="M4.65341 12.96L9.87888 21.9679C10.2396 21.9443 10.6026 21.9337 10.9655 21.9358C11.3306 21.9369 11.6979 21.9518 12.0662 21.9796L6.75599 12.8242C5.76501 12.8595 5.07719 12.9162 4.65341 12.96Z" fill="#260246"/>
<path d="M30.232 15.1396C30.1549 15.1332 30.0788 15.1193 30.0071 15.098C29.9636 15.0841 25.8574 13.8589 16.6713 13.1394C16.3518 13.1148 16.0258 13.0903 15.6944 13.0667C15.6412 13.0625 15.589 13.0593 15.5369 13.056C15.2022 13.0325 14.8762 13.0101 14.5589 12.9908C13.9113 12.9502 13.2985 12.9171 12.7172 12.8904C12.5379 12.8818 12.3629 12.8743 12.1901 12.8679C11.7816 12.8508 11.3904 12.8369 11.0166 12.8251C10.6809 12.8155 10.3592 12.808 10.0506 12.8027C9.67902 12.7963 9.32697 12.7931 8.99338 12.792H8.93253L14.4666 22.3344C16.1649 22.7139 17.8296 23.3639 19.4226 24.2833L23.6027 26.6962C26.1182 27.0842 28.6945 25.4411 29.2943 22.9534L30.9546 16.0622C31.0665 15.5951 30.7417 15.1803 30.232 15.1396Z" fill="#260246"/>
<path d="M4.1266 13.0273C4.07662 13.0369 4.02771 13.0391 3.9799 13.0359C3.67348 13.0113 3.35401 13.2839 3.26599 13.6431L2.76617 15.6861L6.69748 22.466L7.70476 22.2586C8.37954 22.1207 9.06193 22.0256 9.75084 21.9764C9.79322 21.9732 9.83667 21.97 9.87905 21.9678L4.65358 12.96C4.30153 12.9974 4.13312 13.0252 4.1266 13.0273Z" fill="white"/>
<path d="M8.93253 12.7919C8.55005 12.7908 8.19255 12.7919 7.85896 12.7972C7.69814 12.7994 7.54384 12.8026 7.39498 12.8058C7.16897 12.8111 6.95601 12.8175 6.75607 12.824L12.0663 21.9794C12.5379 22.0125 13.0127 22.0681 13.4875 22.1451C13.8146 22.1985 14.1406 22.2616 14.4666 22.3343L8.93253 12.7919Z" fill="white"/>
</svg>
