<svg width="192" height="192" viewBox="0 0 192 192" fill="none" xmlns="http://www.w3.org/2000/svg">
<path d="M187.784 143.831C185.679 148.337 182.355 151.075 178.45 152.803C176.966 153.458 175.391 153.963 173.769 154.364C170.163 155.26 166.31 155.616 162.606 155.897C161.951 155.943 161.301 155.989 160.657 156.035C159.489 156.115 158.316 156.196 157.149 156.265C154.135 156.46 151.128 156.621 148.114 156.753C146.608 156.816 145.101 156.879 143.594 156.931C139.845 157.068 136.089 157.166 132.334 157.235C129.637 157.286 126.94 157.321 124.242 157.344C115.72 157.424 107.197 157.396 98.6858 157.355C85.3209 157.292 71.6052 157.838 58.2805 156.609C57.366 156.529 56.4402 156.431 55.6006 156.064C54.7553 155.702 53.8351 154.852 53.8121 153.337C53.7374 148.596 60.4083 147.7 61.6907 147.539C58.9936 145.255 57.7973 142.511 60.0115 139.756C55.4684 137.884 42.6325 134.262 34.104 125.772C23.3614 115.084 16.2936 95.4521 21.6765 76.5724C18.6112 74.1155 12.1818 70.7344 7.31667 64.0298C3.06672 58.1632 0.777901 50.2416 0.582465 42.9515C0.536412 41.2352 0.697455 39.7255 1.05393 38.4511C1.23224 37.7968 1.45661 37.2112 1.73825 36.6774C2.69873 34.8348 4.24567 33.7613 6.28725 33.5948C6.84506 33.5489 7.43741 33.5661 8.04128 33.658C15.4943 34.7429 26.2887 45.747 28.7844 63.4213L29.0145 65.1032L29.0547 65.3558L29.6471 63.496C29.6816 63.3755 33.5001 51.7801 46.6408 44.5646C51.9546 41.6427 56.0435 40.1044 58.8728 39.9551C60.1955 39.8804 61.2422 40.1158 62.0128 40.6554C63.1228 41.4361 63.715 42.9343 63.7725 45.1156C63.8071 46.2177 63.6979 47.4863 63.4677 48.9328C62.6856 53.7548 60.6384 58.301 57.9125 62.3307C55.3532 66.1021 43.2191 76.7101 35.6222 75.4645C35.2829 75.4128 36.5826 82.0944 38.2445 85.1138C49.5162 105.59 72.2838 77.3357 88.7311 71.1707C99.8245 65.4075 112.31 63.3467 123.489 64.977C145.618 68.1972 164.47 85.022 173.044 105.635C174.654 109.51 175.96 113.545 178.226 117.07C181.228 121.748 185.834 125.393 188.014 130.502C189.814 134.716 189.727 139.687 187.784 143.831Z" fill="url(#paint0_linear_49690_174769)"/>
<path d="M80.4622 158C73.0502 158 65.5511 157.859 58.2277 157.184C57.2359 157.097 56.2689 156.986 55.3703 156.593C54.0589 156.032 53.2598 154.819 53.2373 153.349C53.1722 149.198 57.592 147.695 60.4326 147.16C58.1165 144.798 57.656 142.313 59.1162 140.021C58.4894 139.78 57.7504 139.509 56.9299 139.21C50.9359 137.02 40.9028 133.355 33.698 126.182C23.7194 116.254 15.5413 96.6031 21.0192 76.7902C20.3475 76.2739 19.5343 75.7116 18.6116 75.0737C15.2307 72.7367 10.5997 69.5363 6.85156 64.3701C2.77431 58.743 0.216201 50.7431 0.00784783 42.9702C-0.0393262 41.2072 0.126341 39.6364 0.500375 38.3C0.691884 37.5976 0.931127 36.9793 1.2299 36.4131C2.29021 34.3794 4.02332 33.2072 6.2411 33.0261C6.86111 32.9757 7.49629 32.9981 8.12809 33.0945C16.368 34.2936 26.7256 45.9782 29.2787 62.8319C30.1778 60.5077 34.6151 50.5161 46.3638 44.0655C51.7311 41.1136 55.9296 39.5389 58.8427 39.3853C60.2894 39.3102 61.4654 39.5742 62.3432 40.1892C63.6107 41.0805 64.2852 42.7342 64.3481 45.1043C64.3824 46.2086 64.2801 47.4923 64.0358 49.0266C63.2878 53.6379 61.3879 58.2228 58.3895 62.6553C55.8549 66.3904 44.1708 76.779 36.1763 76.1141C36.3774 77.7151 37.4337 82.4514 38.7485 84.8411C40.8528 88.6631 43.4087 90.8763 46.5638 91.6084C53.8191 93.2901 63.1738 86.7443 72.2196 80.412C77.999 76.3669 83.4578 72.5455 88.4965 70.6491C99.5107 64.9351 111.962 62.7192 123.573 64.4127C144.876 67.5127 164.503 83.609 173.576 105.419C173.964 106.354 174.336 107.299 174.706 108.244C175.844 111.14 177.02 114.135 178.71 116.764C179.9 118.619 181.383 120.35 182.816 122.023C184.975 124.545 187.209 127.153 188.543 130.281C190.403 134.635 190.314 139.793 188.304 144.078C186.325 148.316 183.177 151.343 178.683 153.332C177.251 153.963 175.69 154.484 173.907 154.925C170.197 155.847 166.151 156.207 162.65 156.473L160.698 156.611C159.527 156.692 158.352 156.772 157.183 156.841C154.255 157.031 151.211 157.195 148.14 157.33C146.631 157.393 145.123 157.456 143.614 157.508C140.035 157.639 136.349 157.739 132.345 157.812C129.781 157.861 127.132 157.897 124.248 157.922C115.609 158.003 106.881 157.971 98.6835 157.933C95.2796 157.917 91.7909 157.94 88.4168 157.964C85.7851 157.982 83.1287 158 80.4622 158ZM6.88863 34.1479C6.70274 34.1479 6.51797 34.1557 6.33489 34.1708C4.50574 34.32 3.13093 35.2533 2.24865 36.9462C1.98807 37.4396 1.77914 37.9816 1.60898 38.6055C1.26528 39.8343 1.11365 41.2913 1.15801 42.9399C1.36019 50.4903 3.83687 58.2503 7.78327 63.6968C11.4163 68.7039 15.9535 71.8403 19.2664 74.1297C20.3475 74.8775 21.2814 75.5227 22.0368 76.1287C22.2171 76.2728 22.2934 76.511 22.23 76.733C16.6723 96.2247 24.6999 115.608 34.51 125.37C41.5357 132.363 51.42 135.974 57.3252 138.132C58.4748 138.551 59.4678 138.914 60.2315 139.229C60.3989 139.298 60.5236 139.442 60.5691 139.617C60.614 139.791 60.5741 139.978 60.4607 140.119C58.6742 142.341 59.2139 144.691 62.0635 147.105C62.237 147.253 62.3072 147.489 62.2421 147.707C62.1775 147.925 61.9894 148.084 61.763 148.113C59.525 148.393 54.3263 149.464 54.3875 153.332C54.4094 154.778 55.4017 155.357 55.8274 155.54C56.5716 155.865 57.4016 155.959 58.3311 156.041C68.235 156.954 78.4915 156.885 88.4089 156.815C91.7875 156.792 95.2796 156.771 98.6891 156.785C106.883 156.823 115.606 156.855 124.237 156.773C127.118 156.749 129.763 156.713 132.323 156.664C136.32 156.591 140 156.491 143.573 156.361C145.08 156.309 146.585 156.246 148.09 156.183C151.153 156.049 154.189 155.885 157.112 155.695C158.28 155.626 159.452 155.546 160.617 155.466L162.566 155.328C166.175 155.054 170.005 154.712 173.63 153.811C175.348 153.386 176.848 152.886 178.217 152.282C182.446 150.411 185.405 147.568 187.263 143.592C187.263 143.592 187.263 143.592 187.263 143.592C189.136 139.597 189.219 134.79 187.485 130.731C186.22 127.765 184.142 125.338 181.941 122.77C180.483 121.066 178.974 119.304 177.742 117.383C175.991 114.659 174.793 111.611 173.636 108.663C173.267 107.725 172.899 106.788 172.513 105.859C163.593 84.4145 144.317 68.5918 123.406 65.5484C112.026 63.8897 99.8056 66.0681 88.9969 71.6833C88.9761 71.694 88.9554 71.7035 88.9335 71.7119C84.0222 73.5529 78.6101 77.3412 72.88 81.3521C63.6276 87.829 54.0606 94.5256 46.3032 92.7267C42.8117 91.9167 40.011 89.518 37.7409 85.3939C36.3313 82.8337 34.5713 75.942 35.125 75.1527C35.2497 74.9739 35.4906 74.8691 35.7102 74.901C43.1239 76.1169 55.0148 65.5809 57.4364 62.0123C60.341 57.7189 62.1792 53.2887 62.9003 48.8444C63.1328 47.3847 63.2305 46.1711 63.1979 45.1374C63.1457 43.1468 62.6352 41.7986 61.6816 41.1281C61.0217 40.6662 60.0895 40.4678 58.9056 40.5317C56.165 40.6763 52.1326 42.2033 46.9187 45.0712C33.9282 52.2034 30.2329 63.5533 30.1969 63.6671L29.6033 65.5333C29.5224 65.7872 29.2635 65.9582 29.0125 65.9318C28.7463 65.9122 28.5295 65.7127 28.4874 65.4498L28.4469 65.1969L28.2144 63.5029C25.626 45.1682 14.5972 35.1961 7.95849 34.2297C7.60018 34.1753 7.24244 34.1479 6.88863 34.1479Z" fill="#481B8F"/>
<path d="M73.0865 80.6797C73.0865 80.6797 56.4426 92.2893 48.2513 100.829L73.0865 80.6797Z" fill="url(#paint1_linear_49690_174769)"/>
<path d="M48.2518 101.407C48.1086 101.407 47.9654 101.354 47.8542 101.247C47.6245 101.028 47.6166 100.664 47.8362 100.436C55.9733 91.9531 72.5906 80.329 72.7574 80.213C73.0191 80.0314 73.3774 80.0947 73.5583 80.3543C73.7402 80.6144 73.6768 80.972 73.4167 81.1536C73.2505 81.2697 56.7253 92.8293 48.6674 101.229C48.5545 101.347 48.4029 101.407 48.2518 101.407Z" fill="#481B8F"/>
<path d="M92.4431 102.673C92.4431 102.673 84.3718 104.265 77.9945 99.9894C73.7582 97.1491 69.4892 89.9488 69.1709 83.0662C69.1709 83.0662 66.794 80.9836 62.3138 83.8903C57.8336 86.7971 52.1213 92.2753 52.1213 92.2753C52.1213 92.2753 49.9933 94.2877 53.1294 100.325C55.3756 104.649 62.6187 115.812 73.9623 120.896C84.9388 125.815 99.9475 124.138 99.9475 124.138" fill="#9751F7"/>
<path d="M93.7408 125.021C88.3224 125.021 80.351 124.411 73.7173 121.439C60.6791 115.595 53.3878 102.116 52.5993 100.598C49.2943 94.2356 51.6103 91.9361 51.7109 91.8413C51.9422 91.6188 57.5122 86.2933 61.9882 83.389C66.7939 80.2711 69.4536 82.5201 69.5654 82.6171C69.6873 82.7236 69.7603 82.8755 69.7676 83.0375C70.0877 89.9595 74.371 96.8405 78.3276 99.4932C84.417 103.576 92.2503 102.101 92.3278 102.086C92.6614 102.022 92.9652 102.234 93.0292 102.556C93.0933 102.879 92.8827 103.192 92.5592 103.256C92.22 103.323 84.1711 104.847 77.6615 100.483C73.5157 97.7033 69.033 90.584 68.5905 83.3851C67.9963 83.0291 66.0065 82.204 62.6397 84.3891C58.2592 87.2306 52.592 92.6497 52.5353 92.7041C52.5246 92.7158 50.8207 94.5837 53.6596 100.049C54.4285 101.529 61.5373 114.672 74.2071 120.351C84.9039 125.144 99.7326 123.561 99.8814 123.544C100.206 123.51 100.504 123.743 100.541 124.07C100.578 124.398 100.342 124.693 100.014 124.729C99.7685 124.757 97.3075 125.021 93.7408 125.021Z" fill="#481B8F"/>
<path d="M91.7212 98.8412C92.102 101.389 95.9002 113.87 96.9797 116.84C99.7905 124.569 103.928 131.135 113.5 132.32C127.139 133.909 137.219 110.843 168.223 116.227C168.328 116.191 180.278 118.547 180.368 118.412C183.504 117.608 188.239 112.429 189.493 109.718C188.522 110.444 184.85 114.047 183.563 114.377C183.477 114.508 171.523 112.153 171.422 112.192C140.419 106.808 130.334 129.874 116.695 128.285C107.123 127.1 102.986 120.534 100.179 112.804C99.2833 110.336 96.5026 101.296 95.3716 96.8532L96.7495 94.6624L96.2363 88.25L93.1713 92.1292L92.6267 92.8212L92.6232 92.8255C92.5901 92.8763 92.5565 92.9231 92.5311 92.973C91.6032 94.432 91.3385 96.2782 91.7212 98.8412Z" fill="#C9C9C9"/>
<path d="M114.852 132.998C114.382 132.998 113.909 132.971 113.431 132.915C103.058 131.631 99.0106 124.173 96.4188 117.046C95.4074 114.264 91.534 101.625 91.1313 98.932C90.7315 96.2542 91.0123 94.2658 92.0153 92.676C92.0411 92.6289 92.0709 92.583 92.1023 92.5359C92.1085 92.5264 92.1394 92.4798 92.1461 92.4709L95.7679 87.8837C95.9201 87.6909 96.1773 87.6101 96.4098 87.6824C96.6451 87.7536 96.8125 87.961 96.8322 88.2055L97.3455 94.6179C97.3556 94.7457 97.3241 94.874 97.2562 94.9822L96.0145 96.9566C97.1877 101.501 99.862 110.182 100.741 112.604C105.133 124.699 111.308 127.021 116.769 127.697C121.87 128.283 126.643 125.163 132.167 121.542C141.175 115.634 152.392 108.284 171.524 111.607L171.523 111.616C171.904 111.657 172.846 111.835 175.569 112.351C178.456 112.897 182.768 113.713 183.475 113.784C184.299 113.504 186.495 111.551 187.687 110.49C188.328 109.92 188.833 109.47 189.136 109.244C189.354 109.08 189.657 109.086 189.87 109.257C190.082 109.429 190.151 109.723 190.037 109.971C188.703 112.851 183.806 118.149 180.517 118.992L180.511 118.968C179.938 119.038 178.211 118.708 172.014 117.534C170.268 117.203 168.464 116.861 168.198 116.826C168.172 116.825 168.146 116.822 168.121 116.818C149.451 113.574 138.458 120.782 129.625 126.573C124.401 129.999 119.828 132.998 114.852 132.998ZM92.3129 98.756C92.6768 101.191 96.439 113.606 97.542 116.639C101.941 128.734 108.114 131.056 113.574 131.732C118.674 132.32 123.446 129.199 128.969 125.577C137.977 119.669 149.188 112.321 168.326 115.643L168.324 115.65C168.687 115.69 169.589 115.861 172.236 116.363C175.004 116.887 179.578 117.753 180.284 117.821C182.016 117.344 184.297 115.434 186.126 113.413C185.121 114.231 184.282 114.811 183.712 114.957L183.706 114.931C183.123 114.995 181.416 114.671 175.346 113.522C173.541 113.18 171.675 112.827 171.399 112.791C171.373 112.789 171.346 112.787 171.32 112.782C152.649 109.54 141.655 116.748 132.822 122.538C127.103 126.288 122.161 129.53 116.626 128.88C106.25 127.596 102.206 120.137 99.6177 113.01C98.7158 110.523 95.9381 101.501 94.7935 97.0031C94.7537 96.845 94.7801 96.6774 94.8665 96.5395L96.1391 94.5158L95.7629 89.816L93.0644 93.2461C92.1854 94.6324 91.9558 96.3674 92.3129 98.756Z" fill="#481B8F"/>
<path d="M104.307 83.9528C101.329 84.8252 98.7206 85.9657 96.9581 87.5167C95.0638 89.1836 94.4028 91.3333 94.919 94.8068C95.2973 97.352 99.098 109.835 100.177 112.803C102.987 120.533 107.124 127.1 116.696 128.285C130.336 129.873 140.418 106.808 171.42 112.191C171.523 112.155 183.475 114.509 183.562 114.376C190.184 112.68 192.602 105.076 190.852 98.5753L186.443 81.5029C185.854 79.216 183.96 77.9037 181.953 77.6774C179.947 77.4512 171.434 75.9542 144.991 78.2249C136.535 78.9561 109.27 82.4987 104.307 83.9528Z" fill="#9751F7"/>
<path d="M118.049 128.961C117.578 128.961 117.106 128.935 116.628 128.879C106.254 127.595 102.207 120.136 99.6161 113.008C98.603 110.219 94.7274 97.5771 94.3292 94.8958C93.7962 91.3132 94.4853 88.9 96.5638 87.0708C98.2475 85.5892 100.725 84.3828 104.139 83.3822L104.14 83.3817C109.158 81.9118 136.225 78.3858 144.94 77.6324C161.343 76.2243 173.654 76.0202 181.53 77.0259C181.725 77.0505 181.888 77.0713 182.021 77.0864C184.499 77.3661 186.416 79.0019 187.022 81.3557L191.431 98.428C192.516 102.458 192.034 106.8 190.14 110.037C188.668 112.554 186.445 114.255 183.711 114.954L183.705 114.929C183.122 114.989 181.392 114.666 175.216 113.497C173.468 113.166 171.661 112.824 171.395 112.788C171.369 112.787 171.344 112.784 171.318 112.78C152.648 109.539 141.655 116.746 132.823 122.537C127.598 125.962 123.024 128.961 118.049 128.961ZM104.476 84.5258C101.234 85.4765 98.9035 86.6016 97.3534 87.9655C95.5889 89.5188 95.0374 91.5391 95.5108 94.7209C95.8708 97.1443 99.6341 109.561 100.739 112.601C105.137 124.698 111.311 127.02 116.77 127.696C121.871 128.282 126.643 125.161 132.167 121.54C141.175 115.634 152.391 108.285 171.523 111.605L171.522 111.613C171.886 111.653 172.793 111.825 175.439 112.325C178.205 112.849 182.779 113.715 183.48 113.782C185.867 113.153 187.812 111.651 189.109 109.435C190.845 106.468 191.281 102.466 190.275 98.7313L185.865 81.6528C185.291 79.4257 183.434 78.4458 181.887 78.2715C181.749 78.2558 181.581 78.2345 181.378 78.2087C173.586 77.2131 161.36 77.4188 145.043 78.8208C136.593 79.5513 109.326 83.1059 104.476 84.5263L104.476 84.5258Z" fill="#481B8F"/>
<path d="M118.924 123.659C122.094 123.288 125.727 120.906 129.934 118.147C136.536 113.819 144.752 108.431 156.556 107.053C161.504 106.475 166.774 106.661 172.218 107.606L172.2 107.608C172.876 107.709 174.015 107.924 176.216 108.341C178.187 108.715 181.538 109.349 183.134 109.623C184.154 109.192 184.981 108.443 185.599 107.388C186.781 105.367 187.069 102.452 186.35 99.7817C186.346 99.7666 181.929 82.6633 181.929 82.6633C181.904 82.5667 181.848 82.3468 181.43 82.2996C181.276 82.2821 181.087 82.2584 180.86 82.2296C173.35 81.2713 161.417 81.4832 145.39 82.8594C141.08 83.2321 136.892 83.655 132.945 84.116C128.769 84.6039 124.708 85.1526 120.874 85.7469C119.413 86.0341 117.684 86.3261 115.855 86.6351C112.306 87.2349 108.284 87.9144 104.845 88.7816C104.218 88.9397 103.654 89.0938 103.146 89.2423C100.925 89.8922 99.6268 92.1903 100.227 94.4211C100.538 95.5747 104.196 110.638 105.384 113.611C107.747 119.525 111.177 122.913 117.27 123.667C117.792 123.728 118.344 123.726 118.924 123.659Z" fill="#280046"/>
<path d="M118.045 124.31C117.759 124.31 117.477 124.293 117.201 124.261C111.23 123.522 107.416 120.306 104.829 113.834C103.845 111.37 101.238 100.92 100.124 96.4568C99.8777 95.4691 99.7081 94.7891 99.6513 94.5778C98.9729 92.0569 100.466 89.4076 102.979 88.6721C103.492 88.5219 104.064 88.3655 104.7 88.2058C108.153 87.3346 112.18 86.6541 115.732 86.0531C117.581 85.7415 119.304 85.4505 120.759 85.1646C124.611 84.5665 128.68 84.0166 132.876 83.5261C136.827 83.0647 141.02 82.6415 145.339 82.2676C161.409 80.888 173.384 80.6761 180.937 81.6403C181.16 81.6689 181.346 81.6924 181.497 81.7093C181.873 81.7519 182.353 81.9256 182.507 82.5137C182.508 82.517 186.888 99.48 186.928 99.6319C187.686 102.448 187.375 105.536 186.115 107.69C185.432 108.858 184.508 109.693 183.368 110.174L183.206 110.242L183.034 110.212C181.477 109.945 178.218 109.329 176.272 108.961L176.105 108.93C173.968 108.524 172.791 108.301 172.112 108.2L169.117 107.75C164.792 107.218 160.602 107.183 156.626 107.647C144.963 109.009 136.812 114.354 130.263 118.648C125.991 121.449 122.304 123.866 118.995 124.253C118.673 124.29 118.357 124.31 118.045 124.31ZM169.421 82.2384C162.903 82.2384 154.887 82.6449 145.442 83.456C141.135 83.8282 136.954 84.2503 133.016 84.71C128.833 85.1994 124.779 85.7471 120.966 86.3385C119.519 86.6232 117.788 86.9159 115.955 87.2253C112.401 87.8257 108.4 88.5023 104.993 89.3617C104.373 89.5181 103.816 89.67 103.315 89.8163C101.419 90.3713 100.293 92.368 100.805 94.2684C100.862 94.4819 101.034 95.1698 101.283 96.1687C102.391 100.608 104.985 111.004 105.939 113.392C108.377 119.493 111.788 122.39 117.344 123.078C117.822 123.133 118.332 123.13 118.855 123.069C121.884 122.715 125.462 120.369 129.603 117.654C136.262 113.288 144.543 107.858 156.487 106.463C161.491 105.877 166.819 106.066 172.321 107.021L172.623 107.073C172.805 107.103 173.014 107.14 173.26 107.184L176.773 107.794L176.6 107.81C178.48 108.165 181.481 108.732 183.058 109.006C183.885 108.618 184.565 107.974 185.084 107.089C186.188 105.201 186.453 102.461 185.774 99.9386C185.774 99.9386 185.749 99.8461 181.372 82.8954C181.369 82.8949 181.367 82.8943 181.363 82.8943C181.206 82.8764 181.016 82.8528 180.785 82.8231C177.73 82.4335 173.934 82.2384 169.421 82.2384Z" fill="#481B8F"/>
<path d="M163.669 82.8676L184.507 107.297C184.581 107.182 184.66 107.06 184.738 106.934C185.862 105.063 186.154 102.351 185.512 99.8613C185.511 99.8507 184.679 96.495 183.779 92.8564L175.357 82.9896C172.031 82.7952 168.13 82.7533 163.669 82.8676Z" fill="#FDEEF9"/>
<path d="M172.052 106.847C172.155 106.863 172.252 106.879 172.356 106.9L172.34 106.902C172.964 107.001 174.011 107.209 176.039 107.616C177.445 107.898 179.614 108.333 181.205 108.638L159.438 83.125C157.138 83.2204 154.704 83.3514 152.145 83.517L172.052 106.847Z" fill="#FDEEF9"/>
<path d="M80.8431 144.515C69.2684 144.515 58.8984 139.887 58.7928 139.839C58.5036 139.708 58.3755 139.368 58.5064 139.079C58.6372 138.791 58.9776 138.663 59.2674 138.793C59.3707 138.839 69.5256 143.367 80.8403 143.367C81.047 143.367 81.2536 143.366 81.4614 143.362H81.4698C81.7838 143.362 82.0404 143.613 82.0449 143.928C82.0494 144.245 81.7961 144.505 81.4783 144.51C81.2671 144.513 81.0537 144.515 80.8431 144.515Z" fill="#481B8F"/>
<path d="M74.2057 150.647C74.195 150.647 74.1844 150.647 74.1742 150.646C64.3928 150.117 61.1714 147.886 61.0389 147.791C60.7811 147.607 60.7216 147.248 60.9069 146.99C61.0911 146.733 61.4477 146.673 61.7066 146.856C61.7448 146.883 64.8797 148.993 74.236 149.5C74.5533 149.517 74.7965 149.788 74.7796 150.104C74.7628 150.41 74.509 150.647 74.2057 150.647Z" fill="#481B8F"/>
<path d="M113.647 120.332C113.582 120.332 113.515 120.322 113.451 120.298C113.153 120.19 112.998 119.861 113.106 119.563L115.677 112.476C115.727 112.337 115.831 112.222 115.964 112.157L124.421 108.016L125.203 102.235C125.217 102.128 125.262 102.026 125.332 101.943L129.616 96.8453C129.82 96.6026 130.183 96.5718 130.426 96.7741C130.67 96.9782 130.702 97.3403 130.498 97.583L126.32 102.554L125.52 108.473C125.494 108.663 125.375 108.828 125.203 108.912L116.679 113.085L114.188 119.954C114.103 120.187 113.882 120.332 113.647 120.332Z" fill="#481B8F"/>
<path d="M124.95 108.966C124.832 108.966 124.712 108.93 124.609 108.854L119.299 104.942C119.174 104.85 119.092 104.712 119.071 104.558L117.985 96.6747L114.546 91.5746C114.369 91.3117 114.438 90.9546 114.702 90.7774C114.966 90.6009 115.322 90.6698 115.5 90.9333L119.014 96.1438C119.063 96.2167 119.094 96.2997 119.106 96.3866L120.178 104.162L125.292 107.93C125.548 108.119 125.602 108.478 125.413 108.733C125.3 108.886 125.126 108.966 124.95 108.966Z" fill="#481B8F"/>
<path d="M144.759 99.9893C144.678 99.9893 144.596 99.9719 144.517 99.9354L137.189 96.5288C137.051 96.4649 136.944 96.3495 136.892 96.2071L134.853 90.6826L128.116 86.5719C127.845 86.4065 127.759 86.0528 127.925 85.7826C128.091 85.5124 128.445 85.4267 128.716 85.592L135.624 89.807C135.734 89.8748 135.818 89.9774 135.863 90.0985L137.889 95.5882L145.002 98.895C145.29 99.0284 145.415 99.3704 145.281 99.6574C145.184 99.8665 144.976 99.9893 144.759 99.9893Z" fill="#481B8F"/>
<path d="M161.825 102.298C161.658 102.298 161.492 102.225 161.378 102.086L156.226 95.7558L149.108 91.6675L135.291 90.8737C134.974 90.8558 134.731 90.5845 134.75 90.2677C134.768 89.9516 135.047 89.7061 135.357 89.7279L149.31 90.5295C149.399 90.5346 149.486 90.5604 149.564 90.6047L156.892 94.8134C156.953 94.8488 157.007 94.8947 157.052 94.9491L162.271 101.362C162.471 101.608 162.434 101.969 162.187 102.169C162.081 102.256 161.952 102.298 161.825 102.298Z" fill="#481B8F"/>
<path d="M154.898 101.79C154.588 101.79 154.333 101.544 154.323 101.233L154.122 94.419C154.113 94.1023 154.363 93.8377 154.68 93.8281C154.981 93.8253 155.263 94.0681 155.272 94.3854L155.473 101.199C155.482 101.516 155.233 101.78 154.915 101.79H154.898Z" fill="#481B8F"/>
<path d="M137.621 103.121C137.312 103.121 137.055 102.875 137.046 102.564L136.857 96.029C136.848 95.7117 137.098 95.4477 137.415 95.4382C137.734 95.4225 137.998 95.6787 138.007 95.9954L138.197 102.53C138.206 102.847 137.956 103.111 137.638 103.121H137.621Z" fill="#481B8F"/>
<path d="M119.304 104.058C119.19 104.058 119.074 104.025 118.974 103.954L109.961 97.6375C109.701 97.4553 109.638 97.0971 109.821 96.8381C110.003 96.5786 110.362 96.5158 110.622 96.698L119.634 103.015C119.894 103.197 119.957 103.555 119.775 103.814C119.663 103.973 119.484 104.058 119.304 104.058Z" fill="#481B8F"/>
<path d="M166.2 139.721C166.013 139.721 165.825 139.718 165.637 139.71C163.092 139.607 160.889 138.731 159.433 137.243C158.562 136.353 157.882 135.183 157.355 133.668C156.777 132.007 156.667 130.621 157.02 129.429C157.597 127.479 159.375 126.185 160.673 125.24C161.315 124.772 161.979 124.289 162.766 123.98C163.824 123.564 164.919 123.524 166.139 123.516C167.895 123.508 169.764 123.569 171.315 124.467C172.837 125.349 173.924 126.996 174.225 128.874C174.49 130.522 174.159 132.346 173.293 134.012C172.614 135.318 171.753 136.231 170.734 136.726C169.249 137.447 167.377 137.328 165.016 136.36C162.238 135.22 160.663 133.452 160.694 131.508C160.716 130.082 161.674 128.662 163.133 127.891C164.538 127.148 166.136 127.071 167.259 127.069C168.059 127.072 168.898 127.137 169.609 127.593C170.603 128.23 171.125 129.55 170.939 130.957C170.725 132.575 169.639 133.971 168.237 134.432C166.619 134.961 164.743 134.105 164.222 132.596C163.941 131.784 164.128 130.82 164.709 130.081C165.241 129.402 166.022 129.041 166.793 129.11C167.335 129.159 167.871 129.496 168.129 129.949C168.33 130.303 168.348 130.69 168.18 131.039C167.939 131.541 167.41 131.729 167.127 131.831L166.705 131.98C166.407 132.084 166.078 131.931 165.97 131.632C165.864 131.333 166.02 131.005 166.32 130.898L166.741 130.749C166.984 130.662 167.119 130.593 167.144 130.542C167.134 130.475 166.929 130.275 166.689 130.253C166.295 130.221 165.909 130.413 165.614 130.789C165.276 131.218 165.157 131.781 165.309 132.222C165.627 133.145 166.852 133.679 167.878 133.341C168.869 133.016 169.641 131.997 169.799 130.807C169.903 130.014 169.693 129.012 168.988 128.56C168.524 128.262 167.881 128.219 167.255 128.217C166.26 128.233 164.849 128.283 163.671 128.906C162.577 129.484 161.86 130.512 161.844 131.526C161.811 133.581 164.357 134.848 165.453 135.298C167.494 136.135 169.057 136.264 170.231 135.694C171.023 135.309 171.71 134.566 172.272 133.483C173.025 132.035 173.316 130.462 173.09 129.055C172.843 127.514 171.963 126.171 170.738 125.461C169.437 124.706 167.823 124.66 166.146 124.664C165.044 124.671 164.06 124.705 163.187 125.048C162.538 125.303 161.934 125.743 161.351 126.167C159.84 127.268 158.554 128.297 158.123 129.754C157.841 130.708 157.945 131.865 158.441 133.291C158.912 134.643 159.506 135.674 160.257 136.441C161.506 137.718 163.433 138.472 165.683 138.563C167.757 138.645 169.851 138.199 171.875 137.764C172.182 137.695 172.492 137.894 172.558 138.204C172.625 138.514 172.427 138.819 172.117 138.886C170.2 139.297 168.224 139.721 166.2 139.721Z" fill="#481A8F"/>
<path d="M140.317 145.081C139.038 145.081 137.767 144.907 136.534 144.563C132.969 143.565 129.339 140.476 129.301 136.5C129.275 133.747 130.959 131.32 132.228 129.734C133.195 128.526 134.401 127.202 136.018 126.533C137.535 125.908 139.196 125.962 140.314 126.059C142.058 126.209 143.391 126.565 144.512 127.179C147.026 128.555 148.574 131.54 148.278 134.437C147.987 137.269 145.973 139.875 143.264 140.923C140.618 141.946 137.427 141.466 135.135 139.699C134.286 139.043 133.224 137.946 132.986 136.436C132.55 133.664 135.116 131.558 136.239 130.781C137.893 129.638 139.406 129.058 140.864 129.01C142.799 128.94 144.579 129.932 145.29 131.465C146.27 133.575 145.038 136.091 143.315 137.485C142.032 138.524 140.628 138.906 139.465 138.532C138.727 138.295 138.114 137.747 137.739 136.989C137.333 136.167 137.267 135.227 137.56 134.41C138.084 132.945 139.668 131.904 141.366 131.904C141.598 131.906 141.899 131.929 142.178 132.09C142.779 132.437 142.894 133.152 142.802 133.705C142.578 135.051 141.239 136.09 139.872 135.987C139.555 135.961 139.32 135.684 139.345 135.368C139.371 135.052 139.649 134.826 139.965 134.842C140.742 134.91 141.54 134.286 141.668 133.517C141.707 133.28 141.646 133.109 141.602 133.083C141.582 133.072 141.525 133.053 141.356 133.052H141.332C140.134 133.052 139.005 133.782 138.642 134.796C138.457 135.314 138.505 135.944 138.77 136.481C139.006 136.958 139.378 137.298 139.817 137.439C140.936 137.801 142.129 136.967 142.591 136.593C143.968 135.479 144.979 133.525 144.246 131.947C143.735 130.845 142.356 130.116 140.902 130.157C139.672 130.198 138.361 130.711 136.894 131.725C135.949 132.379 133.787 134.128 134.123 136.258C134.262 137.145 134.871 138.044 135.838 138.79C137.818 140.317 140.57 140.734 142.848 139.852C145.164 138.957 146.886 136.734 147.133 134.32C147.384 131.87 146.079 129.346 143.958 128.185C142.983 127.651 141.794 127.339 140.215 127.203C138.627 127.065 137.435 127.19 136.458 127.594C135.082 128.163 134.002 129.357 133.127 130.45C131.967 131.9 130.428 134.102 130.451 136.489C130.483 139.899 133.692 142.575 136.844 143.457C138.095 143.806 139.387 143.972 140.687 143.928C143.686 143.841 146.44 142.606 148.053 140.623C149.854 138.408 150.129 135.244 148.706 133.1C148.531 132.835 148.603 132.479 148.868 132.304C149.132 132.129 149.49 132.201 149.665 132.465C151.358 135.017 151.056 138.752 148.946 141.347C147.124 143.586 144.049 144.98 140.72 145.076C140.585 145.079 140.451 145.081 140.317 145.081Z" fill="#481A8F"/>
<path d="M167.757 146.649C170.146 146.032 172.659 147.51 170.589 149.764C168.462 152.04 164.859 151.708 161.742 151.803C156.145 151.973 150.823 154.079 145.242 154.36C139.578 155.46 137.793 151.717 141.728 147.983C144.149 146.133 148.283 146.653 151.123 146.696C156.938 146.785 162.299 147.36 167.757 146.649Z" fill="#6D0000"/>
<path d="M143.375 155.126C141.446 155.126 140.004 154.466 139.369 153.235C138.543 151.636 139.277 149.517 141.332 147.565C141.347 147.551 141.363 147.538 141.379 147.525C143.585 145.839 146.991 145.97 149.729 146.077C150.22 146.096 150.691 146.114 151.132 146.121C152.773 146.146 154.389 146.21 155.953 146.272C159.981 146.432 163.785 146.582 167.649 146.082C169.328 145.662 171.013 146.132 171.662 147.211C171.965 147.715 172.284 148.766 171.013 150.151C169.015 152.288 165.87 152.322 163.094 152.352C162.643 152.357 162.197 152.362 161.76 152.375C158.931 152.461 156.1 153.067 153.363 153.652C150.751 154.21 148.052 154.788 145.312 154.931C144.625 155.062 143.976 155.126 143.375 155.126ZM142.102 148.419C140.479 149.968 139.824 151.611 140.391 152.71C140.973 153.835 142.791 154.249 145.132 153.796C145.159 153.791 145.186 153.788 145.213 153.786C147.874 153.651 150.542 153.081 153.122 152.529C155.909 151.933 158.791 151.317 161.725 151.227C162.169 151.214 162.623 151.209 163.081 151.204C165.751 151.175 168.51 151.146 170.168 149.371C170.494 149.017 170.998 148.337 170.676 147.802C170.347 147.255 169.192 146.871 167.902 147.203C167.879 147.209 167.855 147.214 167.831 147.216C163.859 147.735 159.997 147.582 155.908 147.419C154.351 147.358 152.741 147.294 151.114 147.269C150.665 147.262 150.185 147.244 149.684 147.224C147.144 147.126 143.982 147.004 142.102 148.419Z" fill="#481A8F"/>
<defs>
<linearGradient id="paint0_linear_49690_174769" x1="186" y1="87.8515" x2="4.4535" y2="100.227" gradientUnits="userSpaceOnUse">
<stop stop-color="#00FA96"/>
<stop offset="0.51" stop-color="#00E0B8"/>
<stop offset="1" stop-color="#00B4CB"/>
</linearGradient>
<linearGradient id="paint1_linear_49690_174769" x1="48.2513" y1="90.7543" x2="73.0865" y2="90.7543" gradientUnits="userSpaceOnUse">
<stop stop-color="#00FA96"/>
<stop offset="0.51" stop-color="#00E0B8"/>
<stop offset="1" stop-color="#00B4CB"/>
</linearGradient>
</defs>
</svg>
