<svg preserveAspectRatio="none" width="100%" height="100%" overflow="visible" style="display: block;" viewBox="0 0 164 164" fill="none" xmlns="http://www.w3.org/2000/svg">
<g id="mascot" style="mix-blend-mode:luminosity" opacity="0.4">
<path id="Vector" d="M49.5789 54.1669C46.6113 54.6206 45.126 54.8442 42.1585 55.2978C40.9396 39.9684 49.5177 28.3134 64.4994 24.9177C64.9496 27.8875 65.1763 29.3738 65.6296 32.3435C54.7545 35.1537 49.0246 42.8951 49.582 54.1669H49.5789Z" fill="var(--fill-0, #1EC977)"/>
<path id="Vector_2" d="M141.468 94.4809C141.468 94.4809 140.51 85.008 132.302 83.8679C124.092 82.7279 122.334 85.667 122.334 85.667C122.334 85.667 128.486 91.5817 130.165 99.3384C131.844 107.092 129.126 108.931 126.251 106.534C123.372 104.135 120.739 99.3384 116.185 86.1481C111.631 72.9546 102.841 58.0053 82.151 49.6908C70.345 44.9466 56.5147 43.9537 43.548 46.9141C42.8344 46.8651 42.1116 46.8161 41.3767 46.7671C20.9344 45.4492 11.3273 46.5005 8.92021 46.8406C8.56189 46.8928 8.20358 46.9111 7.8422 46.9418C6.16089 47.0828 4.53167 48.6396 4.05086 50.6378L0.421752 65.7098C-0.481688 69.4701 0.106317 73.1109 1.80295 75.7864L1.79376 75.7804L4.12129 79.6141C3.63434 80.9627 3.20255 82.3356 2.83505 83.7361C2.13679 86.4056 1.66209 89.1607 1.43853 91.971C9.52048 88.0114 25.3475 82.2192 49.3422 91.1557C83.9364 104.037 85.8535 120.665 110.939 127.132C125.326 130.84 132.661 125.989 136.605 120.062C138.492 116.387 139.815 112.293 140.391 107.732C140.391 107.732 147.7 107.074 153.152 103.776C158.607 100.478 162.14 97.4781 164 96.9388C164 96.9388 158.784 87.2268 141.468 94.4809Z" fill="var(--fill-0, #1EC977)"/>
<path id="Vector_3" d="M81.3212 27.7716C81.3911 20.0521 75.1944 13.7374 67.4804 13.6674C59.7663 13.5973 53.4561 19.7984 53.386 27.5179C53.3161 35.2374 59.5128 41.5521 67.2268 41.6222C74.9409 41.6922 81.2511 35.4911 81.3212 27.7716Z" fill="var(--fill-0, #1EC977)"/>
<path id="Vector_4" d="M73.7203 27.7001C73.7522 24.1813 70.9276 21.3029 67.4114 21.271C63.8951 21.2391 61.0188 24.0657 60.9869 27.5843C60.955 31.1031 63.7796 33.9815 67.2958 34.0134C70.8121 34.0453 73.6884 31.2187 73.7203 27.7001Z" fill="var(--fill-0, #FAFAFA)"/>
<path id="Vector_5" d="M136.609 120.063C128.677 135.527 110.795 143.575 96.8546 147.709C79.5974 152.824 40.0084 155.392 16.9629 131.718C4.73131 119.153 0.404009 104.96 1.4422 91.9721C9.52415 88.0125 25.3481 82.2203 49.346 91.1568C83.94 104.038 85.8571 120.667 110.942 127.133C125.329 130.841 132.665 125.99 136.609 120.063Z" fill="var(--fill-0, #A855F7)"/>
<path id="Vector_6" d="M5.98033 66.0443L5.5546 67.8187C5.08297 69.7862 5.10133 71.7139 5.53314 73.4239C5.69546 74.0645 5.916 74.6743 6.19162 75.2444C6.34781 75.5693 6.5193 75.8849 6.71223 76.1822C6.77348 76.2834 6.83784 76.3753 6.90215 76.4672C7.20839 76.9116 7.55443 77.3191 7.93724 77.6808C8.52525 78.2477 9.20207 78.7137 9.94933 79.0538C10.3781 79.25 10.8344 79.4063 11.3091 79.5166L16.4908 78.4347L17.6392 78.1957L18.8766 77.9382L7.79637 58.5021L5.98033 66.0443Z" fill="var(--fill-0, #260246)"/>
<path id="Vector_7" d="M13.1157 50.6899L27.8432 76.5128C28.8599 76.4453 29.8829 76.4146 30.9058 76.4208C31.9348 76.4238 32.97 76.4668 34.0082 76.5464L19.0417 50.3006C16.2486 50.4018 14.3099 50.5643 13.1157 50.6899Z" fill="var(--fill-0, #260246)"/>
<path id="Vector_8" d="M85.2084 56.9374C84.991 56.9191 84.7765 56.8792 84.5745 56.8179C84.4519 56.7781 72.8787 53.266 46.9883 51.2034C46.0879 51.1329 45.1691 51.0625 44.2351 50.995C44.085 50.9828 43.9381 50.9735 43.791 50.9644C42.8478 50.8969 41.929 50.8326 41.0348 50.7774C39.2095 50.6609 37.4823 50.566 35.8438 50.4894C35.3385 50.4649 34.8454 50.4434 34.3585 50.4249C33.207 50.3759 32.1044 50.3361 31.0509 50.3024C30.1047 50.2749 29.1982 50.2534 28.3284 50.2381C27.2811 50.2196 26.2888 50.2104 25.3486 50.2074H25.1771L40.7744 77.5626C45.5611 78.6506 50.2529 80.5139 54.7425 83.1495L66.524 90.0665C73.6138 91.1789 80.8749 86.4686 82.5654 79.337L87.2449 59.5822C87.5604 58.243 86.6447 57.0539 85.2084 56.9374Z" fill="var(--fill-0, #260246)"/>
<path id="Vector_9" d="M11.6294 50.884C11.4885 50.9115 11.3507 50.9177 11.2159 50.9085C10.3523 50.838 9.45188 51.6195 9.20382 52.6492L7.7951 58.5059L18.8752 77.9419L21.7142 77.3475C23.6159 76.952 25.5392 76.6794 27.4809 76.5384C27.6003 76.5292 27.7228 76.5199 27.8423 76.5139L13.1146 50.691C12.1224 50.7982 11.6477 50.8779 11.6294 50.884Z" fill="var(--fill-0, #FAFAFA)"/>
<path id="Vector_10" d="M25.1749 50.2085C24.0969 50.2055 23.0893 50.2085 22.1491 50.2238C21.6958 50.23 21.2609 50.2391 20.8414 50.2483C20.2044 50.2636 19.6041 50.2821 19.0407 50.3004L34.0072 76.5463C35.3363 76.6413 36.6746 76.8006 38.0129 77.0212C38.9347 77.1745 39.8534 77.3554 40.7722 77.5637L25.1749 50.2085Z" fill="var(--fill-0, #FAFAFA)"/>
</g>
</svg>
