<svg width="164" height="119" viewBox="0 0 164 119" fill="none" xmlns="http://www.w3.org/2000/svg">
<g opacity="0.6" clip-path="url(#clip0_46153_848479)">
<g style="mix-blend-mode:luminosity" opacity="0.4">
<path d="M49.579 54.1669C46.6113 54.6205 45.126 54.8442 42.1585 55.2978C40.9396 39.9683 49.5177 28.3134 64.4994 24.9177C64.9497 27.8874 65.1763 29.3738 65.6296 32.3434C54.7546 35.1537 49.0246 42.8951 49.582 54.1669H49.579Z" fill="#1EC977"/>
<path d="M141.468 94.481C141.468 94.481 140.51 85.008 132.302 83.868C124.092 82.7279 122.334 85.667 122.334 85.667C122.334 85.667 128.486 91.5817 130.165 99.3384C131.844 107.092 129.126 108.931 126.251 106.534C123.372 104.135 120.739 99.3384 116.185 86.1481C111.631 72.9547 102.841 58.0053 82.151 49.6908C70.345 44.9466 56.5147 43.9537 43.548 46.9142C42.8344 46.8652 42.1116 46.8162 41.3767 46.7671C20.9344 45.4493 11.3273 46.5005 8.92021 46.8407C8.56189 46.8928 8.20358 46.9111 7.8422 46.9418C6.16089 47.0828 4.53167 48.6397 4.05086 50.6378L0.421752 65.7099C-0.481688 69.4701 0.106317 73.111 1.80295 75.7864L1.79376 75.7804L4.12129 79.6142C3.63434 80.9627 3.20255 82.3356 2.83505 83.7362C2.13679 86.4056 1.66209 89.1607 1.43853 91.971C9.52048 88.0115 25.3475 82.2192 49.3422 91.1557C83.9364 104.037 85.8535 120.665 110.939 127.132C125.326 130.84 132.661 125.989 136.605 120.062C138.492 116.387 139.815 112.293 140.391 107.732C140.391 107.732 147.7 107.074 153.152 103.776C158.607 100.479 162.14 97.4781 164 96.9388C164 96.9388 158.784 87.2269 141.468 94.481Z" fill="#1EC977"/>
<path d="M81.3212 27.7716C81.3911 20.0521 75.1944 13.7374 67.4804 13.6673C59.7664 13.5973 53.4562 19.7984 53.3861 27.5179C53.3161 35.2374 59.5128 41.5521 67.2269 41.6222C74.9409 41.6922 81.2511 35.4911 81.3212 27.7716Z" fill="#1EC977"/>
<path d="M73.7203 27.6998C73.7522 24.1811 70.9275 21.3027 67.4113 21.2708C63.8951 21.2388 61.0187 24.0654 60.9868 27.5841C60.9549 31.1028 63.7796 33.9812 67.2958 34.0131C70.812 34.0451 73.6884 31.2184 73.7203 27.6998Z" fill="#FAFAFA"/>
<path d="M136.609 120.063C128.677 135.527 110.795 143.575 96.8546 147.71C79.5973 152.824 40.0083 155.392 16.9629 131.718C4.73125 119.153 0.403948 104.96 1.44214 91.9722C9.52409 88.0127 25.348 82.2204 49.3459 91.1569C83.9399 104.038 85.8571 120.667 110.942 127.133C125.329 130.841 132.665 125.99 136.609 120.063Z" fill="#A855F7"/>
<path d="M5.98033 66.0442L5.5546 67.8186C5.08297 69.7861 5.10133 71.7138 5.53314 73.4238C5.69546 74.0644 5.916 74.6742 6.19162 75.2443C6.34781 75.5691 6.5193 75.8848 6.71223 76.1821C6.77348 76.2832 6.83784 76.3752 6.90215 76.4671C7.20839 76.9115 7.55443 77.319 7.93724 77.6806C8.52525 78.2476 9.20207 78.7135 9.94933 79.0537C10.3781 79.2498 10.8344 79.4061 11.3091 79.5165L16.4908 78.4346L17.6392 78.1956L18.8766 77.9381L7.79637 58.502L5.98033 66.0442Z" fill="#260246"/>
<path d="M13.1157 50.6901L27.8433 76.5129C28.86 76.4454 29.883 76.4148 30.9058 76.4209C31.9348 76.424 32.97 76.4669 34.0082 76.5466L19.0417 50.3008C16.2486 50.4019 14.31 50.5644 13.1157 50.6901Z" fill="#260246"/>
<path d="M85.2084 56.9375C84.9909 56.9192 84.7764 56.8793 84.5744 56.818C84.4518 56.7782 72.8786 53.2661 46.9883 51.2035C46.0878 51.133 45.169 51.0626 44.2351 50.9951C44.0849 50.9829 43.938 50.9736 43.791 50.9645C42.8477 50.897 41.9289 50.8327 41.0348 50.7775C39.2094 50.661 37.4823 50.5661 35.8437 50.4895C35.3385 50.465 34.8454 50.4435 34.3584 50.425C33.207 50.376 32.1044 50.3362 31.0509 50.3025C30.1046 50.275 29.1981 50.2535 28.3283 50.2382C27.281 50.2197 26.2888 50.2105 25.3485 50.2075H25.177L40.7743 77.5627C45.5611 78.6507 50.2528 80.514 54.7425 83.1496L66.524 90.0666C73.6137 91.179 80.8748 86.4687 82.5653 79.3371L87.2448 59.5823C87.5604 58.2431 86.6446 57.054 85.2084 56.9375Z" fill="#260246"/>
<path d="M11.6294 50.8839C11.4886 50.9114 11.3507 50.9176 11.216 50.9084C10.3523 50.8379 9.45194 51.6194 9.20388 52.6491L7.79517 58.5058L18.8753 77.9418L21.7143 77.3474C23.616 76.9519 25.5393 76.6793 27.4809 76.5383C27.6004 76.5291 27.7229 76.5198 27.8423 76.5138L13.1146 50.6909C12.1225 50.7981 11.6478 50.8778 11.6294 50.8839Z" fill="#FAFAFA"/>
<path d="M25.1749 50.2086C24.097 50.2056 23.0894 50.2086 22.1492 50.2239C21.6959 50.2301 21.261 50.2392 20.8415 50.2484C20.2045 50.2637 19.6042 50.2822 19.0408 50.3005L34.0073 76.5464C35.3364 76.6414 36.6747 76.8007 38.013 77.0213C38.9347 77.1746 39.8535 77.3555 40.7723 77.5638L25.1749 50.2086Z" fill="#FAFAFA"/>
</g>
</g>
<defs>
<clipPath id="clip0_46153_848479">
<rect width="164" height="119" fill="white"/>
</clipPath>
</defs>
</svg>
