<svg preserveAspectRatio="none" width="100%" height="100%" overflow="visible" style="display: block;" viewBox="0 0 16 16" fill="none" xmlns="http://www.w3.org/2000/svg">
<g id="mascot">
<path id="Vector" d="M4.83697 5.2845C4.54745 5.32875 4.40254 5.35057 4.11303 5.39483C3.99411 3.89927 4.831 2.7622 6.29263 2.43092C6.33655 2.72064 6.35867 2.86566 6.40289 3.15538C5.34191 3.42955 4.78289 4.18481 4.83727 5.2845H4.83697Z" fill="var(--fill-0, #19FB9B)"/>
<path id="Vector_2" d="M13.8018 9.21763C13.8018 9.21763 13.7083 8.29344 12.9075 8.18221C12.1065 8.07098 11.935 8.35772 11.935 8.35772C11.935 8.35772 12.5352 8.93477 12.699 9.69152C12.8628 10.448 12.5977 10.6274 12.3172 10.3936C12.0363 10.1594 11.7794 9.69152 11.3351 8.40466C10.8908 7.1175 10.0333 5.65902 8.01473 4.84785C6.86292 4.38501 5.51363 4.28814 4.24858 4.57696C4.17897 4.57218 4.10845 4.5674 4.03675 4.56262C2.04238 4.43405 1.10511 4.5366 0.870264 4.56979C0.835307 4.57488 0.800349 4.57667 0.765092 4.57966C0.601062 4.59341 0.442114 4.7453 0.395206 4.94025L0.0411465 6.41069C-0.0469939 6.77754 0.0103724 7.13275 0.175897 7.39377L0.175 7.39318L0.402077 7.7672C0.35457 7.89877 0.312444 8.03271 0.27659 8.16935C0.208467 8.42978 0.162155 8.69858 0.140344 8.97275C0.928827 8.58645 2.47293 8.02136 4.81388 8.89321C8.18892 10.1499 8.37596 11.7722 10.8233 12.4031C12.2269 12.7649 12.9426 12.2916 13.3273 11.7133C13.5115 11.3548 13.6405 10.9554 13.6967 10.5105C13.6967 10.5105 14.4098 10.4462 14.9417 10.1245C15.4738 9.80275 15.8186 9.51003 16 9.45741C16 9.45741 15.4911 8.50991 13.8018 9.21763Z" fill="var(--fill-0, #19FB9B)"/>
<path id="Vector_3" d="M7.93375 2.70941C7.94057 1.9563 7.33602 1.34023 6.58343 1.33339C5.83084 1.32656 5.21521 1.93154 5.20837 2.68466C5.20155 3.43779 5.8061 4.05385 6.55869 4.0607C7.31128 4.06752 7.92691 3.46254 7.93375 2.70941Z" fill="var(--fill-0, #19FB9B)"/>
<path id="Vector_4" d="M7.1922 2.70247C7.19531 2.35918 6.91974 2.07836 6.5767 2.07524C6.23365 2.07213 5.95303 2.34789 5.94992 2.69118C5.94681 3.03447 6.22238 3.31529 6.56542 3.3184C6.90847 3.32152 7.18909 3.04575 7.1922 2.70247Z" fill="var(--fill-0, white)"/>
<path id="Vector_5" d="M13.3277 11.7134C12.5538 13.2222 10.8093 14.0073 9.44921 14.4107C7.76558 14.9096 3.90324 15.1602 1.6549 12.8505C0.461573 11.6246 0.0393971 10.24 0.140684 8.97289C0.929167 8.58659 2.47297 8.0215 4.81422 8.89335C8.18925 10.15 8.37629 11.7723 10.8236 12.4032C12.2272 12.765 12.9429 12.2917 13.3277 11.7134Z" fill="var(--fill-0, #9945FF)"/>
<path id="Vector_6" d="M0.583462 6.44341L0.541927 6.61652C0.495914 6.80847 0.497705 6.99654 0.539833 7.16337C0.555669 7.22587 0.577186 7.28536 0.604075 7.34098C0.619314 7.37267 0.636044 7.40347 0.654867 7.43247C0.660842 7.44234 0.667121 7.45131 0.673395 7.46028C0.703273 7.50364 0.737032 7.54339 0.77438 7.57867C0.831746 7.63399 0.897778 7.67944 0.970681 7.71263C1.01251 7.73176 1.05703 7.74702 1.10334 7.75778L1.60887 7.65223L1.72092 7.62891L1.84163 7.60379L0.760636 5.70758L0.583462 6.44341Z" fill="var(--fill-0, #260246)"/>
<path id="Vector_7" d="M1.27958 4.94538L2.71642 7.46468C2.81561 7.4581 2.91541 7.4551 3.0152 7.4557C3.11559 7.456 3.21659 7.46019 3.31787 7.46796L1.85773 4.9074C1.58523 4.91727 1.3961 4.93312 1.27958 4.94538Z" fill="var(--fill-0, #260246)"/>
<path id="Vector_8" d="M8.313 5.55489C8.29178 5.5531 8.27086 5.54922 8.25115 5.54323C8.23919 5.53935 7.1101 5.19671 4.58421 4.99547C4.49636 4.9886 4.40672 4.98173 4.31561 4.97515C4.30095 4.97396 4.28662 4.97305 4.27228 4.97216C4.18025 4.96557 4.09062 4.9593 4.00338 4.95392C3.8253 4.94255 3.65679 4.9333 3.49694 4.92582C3.44764 4.92343 3.39954 4.92133 3.35203 4.91953C3.23969 4.91475 3.13212 4.91086 3.02934 4.90758C2.93702 4.90489 2.84859 4.9028 2.76373 4.9013C2.66155 4.8995 2.56475 4.8986 2.47302 4.89831H2.45628L3.97797 7.56711C4.44497 7.67325 4.90271 7.85504 5.34072 8.11217L6.49013 8.787C7.18181 8.89553 7.89022 8.43599 8.05514 7.74022L8.51168 5.81292C8.54246 5.68226 8.45312 5.56626 8.313 5.55489Z" fill="var(--fill-0, #260246)"/>
<path id="Vector_9" d="M1.13458 4.96433C1.12084 4.96701 1.10739 4.96761 1.09424 4.96672C1.00999 4.95984 0.922142 5.03608 0.897942 5.13654L0.760506 5.70793L1.84149 7.60412L2.11847 7.54613C2.304 7.50755 2.49164 7.48095 2.68107 7.46719C2.69272 7.4663 2.70468 7.46539 2.71633 7.4648L1.27948 4.9455C1.18268 4.95595 1.13637 4.96373 1.13458 4.96433Z" fill="var(--fill-0, white)"/>
<path id="Vector_10" d="M2.4561 4.89841C2.35093 4.89812 2.25263 4.89841 2.1609 4.89991C2.11668 4.90051 2.07425 4.9014 2.03333 4.9023C1.97118 4.90379 1.91261 4.90559 1.85764 4.90738L3.31779 7.46795C3.44746 7.47722 3.57802 7.49276 3.70859 7.51429C3.79852 7.52925 3.88816 7.54689 3.97779 7.56721L2.4561 4.89841Z" fill="var(--fill-0, white)"/>
</g>
</svg>
