<svg width="214" height="36" viewBox="0 0 214 36" fill="none" xmlns="http://www.w3.org/2000/svg">
<path d="M13.2555 13.9267C12.8212 13.9931 12.6038 14.0259 12.1695 14.0922C11.9912 11.8489 13.2465 10.1433 15.4389 9.64637C15.5048 10.081 15.538 10.2985 15.6043 10.7331C14.0129 11.1443 13.1743 12.2772 13.2559 13.9267H13.2555Z" fill="#19FB9B"/>
<path d="M26.7027 19.8264C26.7027 19.8264 26.5625 18.4402 25.3613 18.2733C24.1598 18.1065 23.9025 18.5366 23.9025 18.5366C23.9025 18.5366 24.8028 19.4022 25.0485 20.5373C25.2942 21.672 24.8966 21.9411 24.4758 21.5903C24.0545 21.2392 23.6691 20.5373 23.0026 18.607C22.3362 16.6762 21.0499 14.4885 18.0221 13.2718C16.2944 12.5775 14.2704 12.4322 12.3729 12.8654C12.2684 12.8583 12.1627 12.8511 12.0551 12.8439C9.06357 12.6511 7.65766 12.8049 7.3054 12.8547C7.25296 12.8623 7.20052 12.865 7.14764 12.8695C6.90159 12.8901 6.66317 13.118 6.59281 13.4104L6.06172 15.616C5.92951 16.1663 6.01556 16.6991 6.26385 17.0907L6.2625 17.0898L6.60312 17.6508C6.53186 17.8482 6.46867 18.0491 6.41489 18.254C6.3127 18.6447 6.24323 19.0479 6.21052 19.4591C7.39324 18.8797 9.70939 18.032 13.2208 19.3398C18.2834 21.2248 18.5639 23.6583 22.2349 24.6046C24.3403 25.1473 25.4138 24.4373 25.991 23.57C26.2672 23.0322 26.4607 22.433 26.545 21.7657C26.545 21.7657 27.6147 21.6693 28.4125 21.1867C29.2108 20.7041 29.7279 20.265 30 20.1861C30 20.1861 29.2367 18.7649 26.7027 19.8264Z" fill="#19FB9B"/>
<path d="M17.9006 10.0641C17.9109 8.93444 17.004 8.01034 15.8751 8.00009C14.7463 7.98983 13.8228 8.89731 13.8126 10.027C13.8023 11.1567 14.7092 12.0808 15.838 12.091C16.9669 12.1013 17.8904 11.1938 17.9006 10.0641Z" fill="#19FB9B"/>
<path d="M16.7883 10.0537C16.793 9.53877 16.3796 9.11754 15.865 9.11287C15.3505 9.10819 14.9295 9.52184 14.9249 10.0368C14.9202 10.5517 15.3336 10.9729 15.8481 10.9776C16.3627 10.9823 16.7836 10.5686 16.7883 10.0537Z" fill="white"/>
<path d="M25.9915 23.5702C24.8308 25.8332 22.2139 27.011 20.1738 27.616C17.6484 28.3644 11.8549 28.7403 8.48235 25.2758C6.69236 23.437 6.0591 21.36 6.21103 19.4593C7.39375 18.8799 9.70945 18.0322 13.2213 19.34C18.2839 21.225 18.5644 23.6585 22.2354 24.6048C24.3409 25.1475 25.4144 24.4376 25.9915 23.5702Z" fill="#9945FF"/>
<path d="M6.87519 15.6651L6.81289 15.9248C6.74387 16.2127 6.74656 16.4948 6.80975 16.7451C6.8335 16.8388 6.86578 16.928 6.90611 17.0115C6.92897 17.059 6.95407 17.1052 6.9823 17.1487C6.99126 17.1635 7.00068 17.177 7.01009 17.1904C7.05491 17.2555 7.10555 17.3151 7.16157 17.368C7.24762 17.451 7.34667 17.5192 7.45602 17.5689C7.51877 17.5976 7.58554 17.6205 7.65501 17.6367L8.41331 17.4783L8.58137 17.4434L8.76245 17.4057L7.14096 14.5614L6.87519 15.6651Z" fill="#260246"/>
<path d="M7.91937 13.4181L10.0746 17.197C10.2234 17.1871 10.3731 17.1827 10.5228 17.1836C10.6734 17.184 10.8249 17.1903 10.9768 17.2019L8.78659 13.3611C8.37784 13.3759 8.09414 13.3997 7.91937 13.4181Z" fill="#260246"/>
<path d="M18.4695 14.3323C18.4377 14.3297 18.4063 14.3238 18.3767 14.3149C18.3588 14.309 16.6652 13.7951 12.8763 13.4932C12.7445 13.4829 12.6101 13.4726 12.4734 13.4627C12.4514 13.4609 12.4299 13.4596 12.4084 13.4582C12.2704 13.4484 12.1359 13.4389 12.0051 13.4309C11.7379 13.4138 11.4852 13.3999 11.2454 13.3887C11.1715 13.3851 11.0993 13.382 11.028 13.3793C10.8595 13.3721 10.6982 13.3663 10.544 13.3614C10.4055 13.3573 10.2729 13.3542 10.1456 13.352C9.99232 13.3492 9.84712 13.3479 9.70952 13.3475H9.68442L11.967 17.3507C12.6675 17.5099 13.3541 17.7826 14.0111 18.1683L15.7352 19.1805C16.7727 19.3433 17.8353 18.654 18.0827 17.6103L18.7675 14.7194C18.8137 14.5234 18.6797 14.3494 18.4695 14.3323Z" fill="#260246"/>
<path d="M7.70187 13.4465C7.68126 13.4505 7.66108 13.4514 7.64136 13.4501C7.51498 13.4398 7.38321 13.5541 7.34691 13.7048L7.14076 14.5619L8.76223 17.4062L9.17771 17.3192C9.456 17.2613 9.73746 17.2214 10.0216 17.2008C10.0391 17.1994 10.057 17.1981 10.0745 17.1972L7.91922 13.4182C7.77402 13.4339 7.70456 13.4456 7.70187 13.4465Z" fill="white"/>
<path d="M9.68415 13.3476C9.52639 13.3472 9.37895 13.3476 9.24135 13.3499C9.17502 13.3508 9.11138 13.3521 9.04999 13.3534C8.95677 13.3557 8.86892 13.3584 8.78646 13.3611L10.9767 17.2019C11.1712 17.2158 11.367 17.2391 11.5629 17.2714C11.6978 17.2939 11.8322 17.3203 11.9667 17.3508L9.68415 13.3476Z" fill="white"/>
<path d="M40.4204 25.0008L36 11.0012H39.1003L41.9806 20.3605L45.0206 11.0012H48.0406L51.0404 20.3605L53.9399 11.0012H57.0201L52.5806 25.0008H49.4611L46.5014 15.4608L43.5216 25.0008H40.4213H40.4204Z" fill="white"/>
<path d="M58.52 25.0008V11.0012H61.5399V16.5207H67.3799V11.0012H70.3998V25.0008H67.3799V19.3608H61.5399V25.0008H58.52Z" fill="white"/>
<path d="M71.9 25.0008L77.8998 11.0012H81.0192L87.0189 25.0008H83.6987L82.5191 22.2812H76.3989L75.2385 25.0008H71.8991H71.9ZM77.3803 19.621H81.5405L79.4809 14.7414H79.4408L77.3812 19.621H77.3803Z" fill="white"/>
<path d="M88.5188 25.0008V11.0012H91.5388V22.221H96.579V25.0008H88.5188Z" fill="white"/>
<path d="M98.5583 25.0008V11.0012H106.378V13.781H101.578V16.5207H106.138V19.3006H101.578V22.2201H106.478V24.9999H98.5583V25.0008Z" fill="white"/>
<path d="M113.858 16.4202C115.998 16.9798 118.578 17.7403 118.578 20.8999C118.578 23.4397 116.478 25.26 113.398 25.26C111.198 25.26 109.538 24.4402 108.178 22.88L110.258 20.9401C111.098 21.8804 111.978 22.4802 113.397 22.4802C114.897 22.4802 115.557 21.8402 115.557 20.9802C115.557 19.9605 114.197 19.6401 112.638 19.2001C110.598 18.6404 108.497 17.68 108.497 14.8399C108.497 12.4198 110.458 10.74 113.278 10.74C115.498 10.74 116.857 11.5397 118.157 12.8397L116.078 14.7194C115.397 14.0192 114.477 13.5199 113.257 13.5199C112.137 13.5199 111.517 14.0001 111.517 14.7797C111.517 15.6999 112.557 16.0797 113.857 16.4193L113.858 16.4202Z" fill="white"/>
<path d="M132.696 11.0007L135.675 20.5407L138.635 11.0007H141.755L146.194 25.0003H143.114L140.215 15.6411L137.215 25.0003H134.195L131.155 15.6411L128.274 25.0003H125.174L129.594 11.0007H132.695H132.696Z" fill="white"/>
<path d="M146.075 24.9994L152.075 10.9997H155.194L161.194 24.9994H157.874L156.694 22.2798H150.574L149.414 24.9994H146.074H146.075ZM151.556 19.6195H155.716L153.656 14.74H153.616L151.557 19.6195H151.556Z" fill="white"/>
<path d="M170.374 24.9994L166.694 19.9591H165.194V24.9994H162.194V10.9997H167.734C169.894 10.9997 172.213 12.4796 172.213 15.4794C172.213 17.4997 171.153 18.839 169.793 19.499L173.773 24.9984H170.373L170.374 24.9994ZM165.194 17.34H167.253C168.513 17.34 169.193 16.5603 169.193 15.4803C169.193 14.4004 168.513 13.6207 167.253 13.6207H165.194V17.3409V17.34Z" fill="white"/>
<path d="M177.774 18.4803V25.0003H174.774V11.0007H177.774V17.0004L182.474 11.0007H186.014L180.794 17.7408L186.214 25.0003H182.694L177.774 18.4803Z" fill="white"/>
<path d="M187.733 24.9994V10.9997H195.553V13.7796H190.753V16.5192H195.313V19.2991H190.753V22.2186H195.653V24.9984H187.733V24.9994Z" fill="white"/>
<path d="M201.053 24.9994V13.7796H197.312V10.9997H207.792V13.7796H204.051V24.9994H201.052H201.053Z" fill="white"/>
</svg>
