<svg preserveAspectRatio="none" width="100%" height="100%" overflow="visible" style="display: block;" viewBox="0 0 18.5001 20.7079" fill="none" xmlns="http://www.w3.org/2000/svg">
<g id="Group">
<path id="Vector" d="M13.7551 0.332941C13.932 0.135365 14.1802 0.0161514 14.445 0.00152371C14.7098 -0.0131039 14.9695 0.0780521 15.1671 0.254941C16.2168 1.19196 17.0565 2.34042 17.6309 3.62491C18.2053 4.90939 18.5015 6.30086 18.5001 7.70794C18.5001 12.7989 14.6961 17.0019 9.77513 17.6279L9.50013 17.6579V18.7079H12.5001C12.755 18.7082 13.0002 18.8058 13.1855 18.9808C13.3708 19.1558 13.4824 19.3949 13.4973 19.6493C13.5122 19.9038 13.4295 20.1543 13.2659 20.3498C13.1023 20.5452 12.8702 20.6708 12.6171 20.7009L12.5001 20.7079H4.50013C4.24525 20.7077 4.0001 20.6101 3.81476 20.4351C3.62943 20.2601 3.51789 20.021 3.50296 19.7665C3.48802 19.5121 3.5708 19.2616 3.73439 19.0661C3.89798 18.8707 4.13003 18.745 4.38313 18.7149L4.50013 18.7079H7.50013V17.6579C6.02679 17.5103 4.60465 17.0371 3.33649 16.2727C2.06832 15.5083 0.985794 14.4718 0.16713 13.2379C0.0203324 13.017 -0.0326904 12.7468 0.019726 12.4868C0.0721425 12.2268 0.225704 11.9982 0.44663 11.8514C0.667555 11.7046 0.937747 11.6516 1.19777 11.704C1.45779 11.7565 1.68633 11.91 1.83313 12.1309C2.53389 13.1881 3.47615 14.0633 4.58205 14.6842C5.68795 15.3051 6.92574 15.654 8.19313 15.7019L8.51113 15.7079C10.1304 15.7057 11.7109 15.2121 13.0436 14.2924C14.3764 13.3728 15.3987 12.0703 15.9754 10.5572C16.5521 9.04411 16.6561 7.39164 16.2736 5.81819C15.8911 4.24475 15.0401 2.82442 13.8331 1.74494C13.6356 1.56804 13.5163 1.31989 13.5017 1.05509C13.4871 0.790296 13.5782 0.530532 13.7551 0.332941ZM8.50013 0.707941C10.3566 0.707941 12.1371 1.44544 13.4499 2.75819C14.7626 4.07095 15.5001 5.85143 15.5001 7.70794C15.5001 9.56446 14.7626 11.3449 13.4499 12.6577C12.1371 13.9704 10.3566 14.7079 8.50013 14.7079C6.64361 14.7079 4.86314 13.9704 3.55038 12.6577C2.23763 11.3449 1.50013 9.56446 1.50013 7.70794C1.50013 5.85143 2.23763 4.07095 3.55038 2.75819C4.86314 1.44544 6.64361 0.707941 8.50013 0.707941ZM8.50013 2.70794C7.17405 2.70794 5.90228 3.23472 4.9646 4.17241C4.02691 5.11009 3.50013 6.38186 3.50013 7.70794C3.50013 9.03402 4.02691 10.3058 4.9646 11.2435C5.90228 12.1812 7.17405 12.7079 8.50013 12.7079C9.82621 12.7079 11.098 12.1812 12.0357 11.2435C12.9733 10.3058 13.5001 9.03402 13.5001 7.70794C13.5001 6.38186 12.9733 5.11009 12.0357 4.17241C11.098 3.23472 9.82621 2.70794 8.50013 2.70794Z" fill="var(--fill-0, #7A7A83)"/>
</g>
</svg>
