<svg viewBox="0 0 16 16" width="16" height="16" fill="none" xmlns="http://www.w3.org/2000/svg">
  <svg x="1.00" y="3.20" width="14.00" height="9.61" viewBox="0 0 14.0009 9.6079" fill="none">
    <g id="Group">
<path id="Vector" d="M13.8053 4.7279C12.9103 3.5879 11.5953 2.7429 10.0803 2.3379C9.44532 1.2929 8.31032 0.522904 6.70532 0.042904C6.33532 -0.067096 5.94032 0.0379041 5.68032 0.317904C5.42032 0.592904 5.34032 0.987904 5.47032 1.3379C5.62032 1.7579 5.66032 2.1079 5.58532 2.4229C4.60032 2.7279 3.70532 3.2279 2.97032 3.8829L1.27032 2.3079C1.01032 2.0729 0.635318 2.0429 0.340318 2.2379C0.050318 2.4329 -0.0696821 2.7829 0.0403179 3.1029C0.525318 4.5779 0.525318 6.0079 0.0403179 7.4829C-0.0696821 7.8129 0.050318 8.1579 0.340318 8.3529C0.635318 8.5479 1.01032 8.5179 1.27532 8.2779L2.98532 6.6929C4.02532 7.6179 5.37032 8.2329 6.84032 8.4479L6.94032 8.8529C7.03032 9.1979 7.29032 9.4679 7.63032 9.5679C7.72532 9.5929 7.82032 9.6079 7.91532 9.6079C8.16032 9.6079 8.40032 9.5129 8.58532 9.3429L9.65532 8.3679C11.3603 8.0179 12.8303 7.1379 13.8053 5.8829L13.8103 5.8779C14.0653 5.5379 14.0653 5.0679 13.8053 4.7279ZM11.0103 5.3029C10.7353 5.3029 10.5053 5.0779 10.5053 4.8029C10.5053 4.5279 10.7303 4.3029 11.0053 4.3029H11.0103C11.2853 4.3029 11.5103 4.5279 11.5103 4.8029C11.5103 5.0779 11.2853 5.3029 11.0103 5.3029Z" fill="#818CF8"/>
</g>
  </svg>
</svg>