<svg viewBox="0 0 16 16" width="16" height="16" fill="none" xmlns="http://www.w3.org/2000/svg">
  <svg x="0.67" y="3.33" width="14.66" height="9.33" viewBox="0 0 14.6599 9.33333" fill="none">
    <g id="Line">
<path id="Vector" d="M3.65967 7C3.65967 8.28667 4.70667 9.33333 5.993 9.33333C6.17733 9.33333 6.32633 9.184 6.32633 9V7H7.993C10.8463 7 13.183 4.74833 13.32 1.92867C13.32 1.92867 14.5983 1.77 14.6597 0.333333C14.6673 0.149333 14.5107 0 14.3263 0H13.2953C12.7863 0 12.3263 0.294 12.3263 0.294C12.3263 0.294 11.8757 0 11.3573 0H10.3263C10.142 0 9.993 0.149333 9.993 0.333333C9.993 1.07533 10.4917 1.72967 11.2777 1.91467C11.2777 1.91467 10.873 3.40367 9.28467 3.03933C8.542 2.869 7.88467 2.42 7.346 1.88133C6.34767 0.883 5.00767 0.336333 3.42933 0.333C1.61633 0.329667 0 1.86167 0 3.44533C0 7.22767 3.65967 7 3.65967 7ZM1.99633 3.33333H1.99967C2.184 3.33333 2.333 3.48267 2.333 3.66667C2.333 3.85067 2.184 4 1.99967 4C1.81567 4 1.66467 3.85067 1.66467 3.66667C1.66467 3.48267 1.81233 3.33333 1.99633 3.33333Z" fill="#27C9D8"/>
</g>
  </svg>
</svg>