<svg preserveAspectRatio="xMidYMid meet" width="16" height="16" overflow="visible" style="display: block;" viewBox="0 0 16 16" fill="none" xmlns="http://www.w3.org/2000/svg">
<g id="shark(1) 1">
<path id="Vector" d="M13.7247 5.9195C12.8437 5.15672 11.8336 4.55736 10.742 4.14962C10.7701 3.50313 10.9747 2.87667 11.3335 2.33816L11.8923 1.5L10.6051 1.81309C10.1124 1.93295 9.64869 2.1505 9.24158 2.45285C8.83447 2.75519 8.49219 3.13619 8.23503 3.57325L7.6 3.51334C6.52669 3.41209 5.44403 3.48881 4.39572 3.74041L1.71519 4.38375C1.62903 4.40443 1.54952 4.44658 1.48405 4.50628C1.41858 4.56598 1.3693 4.64128 1.34078 4.72517C1.31227 4.80905 1.30545 4.89879 1.32098 4.98602C1.3365 5.07325 1.37386 5.15513 1.42956 5.22403L2.77597 6.88934C2.99241 7.15704 3.27021 7.3686 3.58581 7.50609C3.90141 7.64357 4.24551 7.70293 4.58894 7.67912L6.46841 7.54887C6.51414 7.5457 6.56004 7.55171 6.60341 7.56656C6.64678 7.5814 6.68674 7.60479 6.72092 7.63533C6.75511 7.66587 6.78283 7.70295 6.80245 7.74438C6.82208 7.78581 6.83321 7.83074 6.83518 7.87654C6.83716 7.92234 6.82994 7.96807 6.81395 8.01103C6.79797 8.054 6.77354 8.09333 6.74211 8.1267C6.71068 8.16007 6.67288 8.1868 6.63095 8.20533C6.58902 8.22385 6.5438 8.23379 6.49797 8.23456L4.80616 8.26334L4.99847 8.46647C5.41187 8.8581 5.95639 9.0816 6.52572 9.09334L11.0295 9.18791L11.8254 9.10694C12.1288 9.11319 12.4207 9.31778 12.6518 9.5145C12.916 9.73948 13.0808 10.0597 13.1102 10.4055C13.1396 10.7513 13.0313 11.0948 12.8088 11.3611L11.9979 12.2198L11.776 11.9979C11.2396 11.4615 10.5437 11.1135 9.79269 11.0063L9.29269 10.9348L9.42706 11.2411C9.73385 11.9399 10.2713 12.5122 10.9495 12.8622L10.6363 13.0299C10.2187 13.2537 9.85362 13.5639 9.56541 13.94L9.12353 14.5165L9.53759 14.517C10.0345 14.5177 10.5259 14.4127 10.9792 14.209C11.4325 14.0053 11.8373 13.7076 12.1667 13.3356L12.648 13.1237C14.1492 12.4625 15.1641 11.0095 15.2246 9.37022C15.2257 9.34009 15.2265 9.30989 15.227 9.27959C15.2372 8.64378 15.1081 8.01344 14.8485 7.43292C14.589 6.85241 14.2054 6.33582 13.7247 5.9195Z" fill="#0A71CD"/>
<path id="Vector_2" d="M9.48709 7.09325C9.48359 7.09325 9.48006 7.09325 9.47653 7.09303C9.41028 7.09028 9.34785 7.06132 9.30295 7.01253C9.25805 6.96375 9.23437 6.89912 9.23713 6.83287L9.24919 6.5425C9.25768 6.3311 9.19482 6.12298 9.07072 5.95162C9.03303 5.89792 9.01797 5.83156 9.02877 5.76685C9.03958 5.70215 9.07538 5.64428 9.12847 5.60573C9.18155 5.56718 9.24766 5.55105 9.31253 5.5608C9.37741 5.57056 9.43585 5.60542 9.47525 5.65787C9.66543 5.92048 9.76176 6.2394 9.74875 6.56337L9.73669 6.85372C9.73399 6.91812 9.70652 6.97899 9.66001 7.02363C9.6135 7.06826 9.55155 7.0932 9.48709 7.09325Z" fill="var(--fill-0, #0A0A0B)"/>
<path id="Vector_3" d="M10.4871 7.09325C10.4836 7.09325 10.4801 7.09325 10.4765 7.09303C10.4103 7.09028 10.3478 7.06132 10.3029 7.01253C10.2581 6.96375 10.2344 6.89912 10.2371 6.83287L10.2492 6.5425C10.2551 6.39508 10.2264 6.24832 10.1654 6.114C10.1379 6.05367 10.1355 5.98488 10.1587 5.92277C10.1819 5.86067 10.2289 5.81033 10.2892 5.78283C10.3495 5.75533 10.4183 5.75292 10.4804 5.77614C10.5425 5.79936 10.5929 5.84629 10.6204 5.90662C10.7139 6.11246 10.7579 6.33735 10.7487 6.56325L10.7367 6.85362C10.734 6.91804 10.7066 6.97894 10.66 7.02359C10.6135 7.06824 10.5516 7.0932 10.4871 7.09325Z" fill="var(--fill-0, #0A0A0B)"/>
<path id="Vector_4" d="M14.1219 12.0835L14.2199 12.2585C14.3936 12.5686 14.5501 12.8881 14.6887 13.2154L14.7627 13.3904L14.8114 13.2287C15.1009 12.2689 15.2061 11.263 15.1214 10.2641L15.0803 9.85684L13.9937 11.8608L14.1219 12.0835Z" fill="#0A71CD"/>
<path id="Vector_5" d="M4.58887 5.57453C4.7587 5.57453 4.89638 5.43686 4.89638 5.26703C4.89638 5.0972 4.7587 4.95953 4.58887 4.95953C4.41905 4.95953 4.28137 5.0972 4.28137 5.26703C4.28137 5.43686 4.41905 5.57453 4.58887 5.57453Z" fill="var(--fill-0, #0A0A0B)"/>
<path id="Vector_6" d="M13.8375 10.8997C13.7055 11.1697 13.4936 11.3926 13.2306 11.5381L11.9978 12.2197L12.715 11.3609C12.8741 11.1706 12.9761 10.9391 13.0094 10.6933C13.0426 10.4474 13.0057 10.1972 12.9029 9.97138C12.8001 9.74559 12.6357 9.55344 12.4284 9.41707C12.2212 9.2807 11.9796 9.20567 11.7316 9.20063L10.4906 9.175L10.3853 8.32531L12.3469 8.39125C12.5991 8.3997 12.8448 8.47323 13.0603 8.6047C13.2757 8.73617 13.4534 8.92111 13.5763 9.14156L13.8009 9.545C13.9158 9.75112 13.9791 9.98197 13.9855 10.2179C13.9919 10.4537 13.9411 10.6877 13.8375 10.8997Z" fill="#0A71CD"/>
<path id="Vector_7" d="M9.15028 8.39338C9.46294 9.06797 10.0224 9.59699 10.7134 9.8715L11.5079 10.1871L11.486 10.1261C11.2468 9.45644 10.8721 8.84334 10.3853 8.32509L10.329 8.26516L9.15028 8.39338Z" fill="#0A71CD"/>
<path id="Vector_8" d="M8.48709 7.09325C8.48359 7.09325 8.48006 7.09325 8.47653 7.09303C8.44373 7.09167 8.41151 7.08386 8.38173 7.07004C8.35194 7.05623 8.32517 7.03668 8.30294 7.01252C8.28071 6.98836 8.26345 6.96006 8.25216 6.92923C8.24087 6.8984 8.23576 6.86565 8.23713 6.83284L8.24919 6.54253C8.25447 6.41221 8.23261 6.28222 8.185 6.16079C8.13739 6.03937 8.06507 5.92916 7.97262 5.83716C7.94933 5.81402 7.93082 5.78652 7.91815 5.75623C7.90548 5.72594 7.89891 5.69345 7.8988 5.66062C7.89868 5.62778 7.90504 5.59525 7.9175 5.56487C7.92996 5.5345 7.94828 5.50687 7.97142 5.48358C7.99456 5.46028 8.02206 5.44177 8.05235 5.42911C8.08264 5.41644 8.11513 5.40986 8.14796 5.40975C8.18079 5.40964 8.21333 5.41599 8.2437 5.42845C8.27408 5.44092 8.3017 5.45924 8.325 5.48238C8.46667 5.62335 8.57751 5.79223 8.65046 5.9783C8.72342 6.16438 8.75691 6.36358 8.74881 6.56328L8.73675 6.85362C8.73407 6.91805 8.70661 6.97896 8.66008 7.02361C8.61356 7.06827 8.55158 7.09322 8.48709 7.09325Z" fill="var(--fill-0, #0A0A0B)"/>
</g>
</svg>
