<svg viewBox="0 0 16 16" width="16" height="16" fill="none" xmlns="http://www.w3.org/2000/svg">
  <svg x="0.52" y="2.33" width="14.96" height="11.34" viewBox="0 0 14.9569 11.3392" fill="none">
    <path id="Vector" d="M12.6576 7.85716C12.6576 7.85716 11.7888 2.83157 7.9776 1.47637C7.7984 1.10997 7.7312 0.738765 7.768 0.359565C7.7968 0.0603651 7.4432 -0.117235 7.2256 0.0891652L6.1088 1.14517C6.0912 1.14517 6.0736 1.14517 6.056 1.14357C0.9728 1.08437 0.9008 5.22997 0.9008 5.22997C0.9008 5.22997 0 5.89716 0 6.51796C0 7.13876 1.3328 6.89877 3.128 6.65557C4.9232 6.41397 8.4992 5.46516 11.7824 8.34996C11.7824 8.34996 11.7904 10.0828 11.3808 11.094C11.1104 11.7628 13.0448 10.9628 13.1584 9.90996C13.1584 9.90996 14.1616 9.97397 14.8864 9.18837C15.376 8.65877 13.1744 9.11636 12.6576 7.85557V7.85716Z" fill="#60A5FA"/>
  </svg>
  <svg x="0.58" y="7.92" width="11.72" height="2.76" viewBox="0 0 11.7248 2.7552" fill="none">
    <path id="Vector" d="M11.7248 2.7552C11.6352 1.4928 9.2048 0 5.7824 0C3.2912 0 1.792 0.4992 0 1.1184C0.272 1.5216 1.4928 1.4336 3.0704 1.2208C4.8656 0.9792 8.736 0.0912003 11.7248 2.7552Z" fill="#60A5FA"/>
  </svg>
  <svg x="6.60" y="7.09" width="2.44" height="2.48" viewBox="0 0 2.43678 2.47604" fill="none">
    <path id="Vector" d="M2.23477 0.664986C2.17397 0.229786 1.76917 -0.0646146 1.33557 0.0121854L0.386766 0.180186C-0.0468344 0.256986 -0.128435 0.554586 0.205965 0.840986L1.93077 2.32099C2.26517 2.60739 2.48757 2.48579 2.42677 2.04899L2.23317 0.663386L2.23477 0.664986Z" fill="#60A5FA"/>
  </svg>
  <svg x="2.94" y="6.06" width="0.76" height="0.76" viewBox="0 0 0.7584 0.7584" fill="none">
    <path id="Vector" d="M0.3792 0.7584C0.588626 0.7584 0.7584 0.588626 0.7584 0.3792C0.7584 0.169773 0.588626 0 0.3792 0C0.169773 0 0 0.169773 0 0.3792C0 0.588626 0.169773 0.7584 0.3792 0.7584Z" fill="#0A0A0B"/>
  </svg>
</svg>