<svg viewBox="0 0 16 16" width="16" height="16" fill="none" xmlns="http://www.w3.org/2000/svg">
  <svg x="2.00" y="3.00" width="12.00" height="10.64" viewBox="0 0 12 10.6379" fill="none">
    <g id="Line">
<path id="Vector" d="M7.21661 4.09027H8.22272C8.22272 4.09027 9.33244 3.53105 9.57756 2.45432C9.71389 1.85501 9.41697 0.951966 9.41697 0.951966C8.92482 0.743381 7.23024 0.818363 7.23024 0.818363C7.23024 0.818363 7.87399 1.43484 7.84673 2.45432C7.81891 3.49696 7.21661 4.09027 7.21661 4.09027Z" fill="#FF8F3C"/>
<path id="Vector_2" d="M11.3747 3.35681L11.6447 2.81968C11.3066 2.12167 10.7449 1.55181 10.0551 1.20008C10.0551 1.20008 10.3452 1.85855 10.0455 2.80468C9.77177 3.66983 9.0953 4.09027 9.0953 4.09027H10.0905C10.6167 4.09027 11.1075 3.80943 11.3747 3.35681Z" fill="#FF8F3C"/>
<path id="Vector_3" d="M10.972 4.43274C10.4545 4.69667 9.94323 4.63559 9.94323 4.63559C10.0087 4.74738 10.055 4.87281 10.0741 5.00641C10.0741 5.00641 10.7789 5.51083 11.3856 5.27907L11.9827 4.99823C11.9936 4.88371 12.0441 4.00112 11.8982 3.5286C11.8982 3.5286 11.637 4.09355 10.972 4.43274Z" fill="#FF8F3C"/>
<path id="Vector_4" d="M11.0202 5.88165C10.7672 5.87347 10.5164 5.82712 10.2794 5.71561L9.79846 6.91803C9.66731 7.18224 9.68258 7.47453 9.82845 7.70383L10.1867 8.11119C11.0399 7.52224 11.6367 6.65001 11.8767 5.65235C11.8767 5.65235 11.5238 5.89801 11.0202 5.88165Z" fill="#FF8F3C"/>
<path id="Vector_5" d="M9.33798 6.50875C8.9508 6.17884 8.46819 5.99888 7.95559 5.99888H6.54595C6.39599 5.99888 6.26293 6.12185 6.27329 6.27154C6.38453 7.86905 7.86834 7.91022 7.86834 7.91022C7.21669 8.69548 7.26168 9.83656 7.98831 10.555C8.14727 10.7123 8.32096 10.6068 8.37549 10.555L9.16075 9.76975C9.50975 9.42075 9.72788 8.97359 9.79332 8.49098C9.79332 8.49071 9.79332 8.49044 9.79332 8.49017C9.79332 8.49017 8.73922 7.76816 9.33798 6.50875Z" fill="#FF8F3C"/>
<path id="Vector_6" d="M1.55625 2.45432C1.55625 2.45432 3.40352 3.94904 4.66456 4.04937C4.3281 4.57124 4.36464 5.18091 4.36464 5.18091C4.38809 5.59862 4.92795 5.52937 4.90996 5.18091C4.90996 5.18091 4.88542 4.51071 5.30259 4.09027H5.45528C5.14472 4.61869 5.18262 5.18091 5.18262 5.18091C5.20961 5.56918 5.7323 5.49583 5.72793 5.18091C5.72793 5.18091 5.65023 4.6146 6.12056 4.09027H6.50774C6.50774 4.09027 7.30009 3.43371 7.30009 2.45432C7.30009 1.61317 6.56227 0.818365 6.56227 0.818365C6.56227 0.818365 5.62432 0.651225 4.34283 1.20554C3.3059 1.65407 1.60806 1.909 1.60806 1.909H1.22906C0.323288 1.909 0.310201 0.545706 1.22906 0.545706H5.18262C5.52917 0.545706 5.56379 0.000388238 5.18262 0.000388238H1.22906C-0.211123 -0.0342395 -0.596936 2.25855 1.22906 2.45432H1.55625ZM4.09471 2.18166H4.09743C4.24794 2.18166 4.37009 2.30381 4.37009 2.45432C4.37009 2.60483 4.24794 2.72698 4.09743 2.72698C3.94693 2.72698 3.82341 2.60483 3.82341 2.45432C3.82341 2.30381 3.9442 2.18166 4.09471 2.18166Z" fill="#FF8F3C"/>
</g>
  </svg>
</svg>